<svg xmlns="http://www.w3.org/2000/svg" xmlns:xlink="http://www.w3.org/1999/xlink" width="700" zoomAndPan="magnify" viewBox="0 0 525 149.999998" height="200" preserveAspectRatio="xMidYMid meet" version="1.0"><defs><g/></defs><g fill="#ffffff" fill-opacity="1"><g transform="translate(15.009365, 102.853007)"><g><path d="M 27.339844 -6.53125 C 28.644531 -12.597656 29.859375 -18.566406 31.164062 -24.632812 C 44.695312 -24.632812 58.316406 -24.632812 72.125 -24.632812 C 73.714844 -26.871094 76.230469 -29.019531 78.472656 -31.257812 C 62.984375 -31.257812 47.867188 -31.257812 32.472656 -31.257812 C 33.683594 -37.230469 34.992188 -43.292969 36.203125 -49.359375 C 54.210938 -49.359375 72.125 -49.359375 90.136719 -49.359375 C 92.28125 -51.597656 94.519531 -53.746094 96.761719 -55.984375 C 64.941406 -55.984375 33.683594 -55.984375 2.144531 -55.984375 C 6.90625 -49.828125 11.289062 -43.855469 16.328125 -37.789062 C 13.53125 -39.097656 11.011719 -40.496094 8.769531 -41.800781 C 5.972656 -27.898438 2.800781 -13.902344 0 0 C 26.125 0 52.90625 0 79.683594 0 C 81.925781 -2.144531 84.164062 -4.292969 86.683594 -6.53125 C 66.808594 -6.53125 46.933594 -6.53125 27.339844 -6.53125 Z M 27.339844 -6.53125 "/></g></g></g><g fill="#ffffff" fill-opacity="1"><g transform="translate(116.431627, 102.853007)"><g><path d="M 0 0 C 8.492188 0 17.261719 0 26.125 0 C 27.710938 -6.25 28.925781 -12.597656 30.230469 -18.941406 C 34.992188 -18.941406 39.65625 -18.941406 44.695312 -18.941406 C 49.453125 -12.597656 54.492188 -6.25 59.53125 0 C 69.328125 0 79.683594 0 90.136719 0 C 84.722656 -6.34375 79.683594 -12.691406 74.644531 -19.035156 C 98.90625 -20.527344 105.902344 -55.984375 80.992188 -55.984375 C 54.492188 -55.984375 28.367188 -55.984375 2.519531 -55.984375 C 6.90625 -49.828125 11.664062 -43.855469 16.703125 -37.789062 C 13.808594 -39.097656 11.011719 -40.496094 8.769531 -41.800781 C 5.972656 -27.898438 2.800781 -13.902344 0 0 Z M 59.808594 -25.566406 C 50.386719 -25.566406 40.960938 -25.566406 31.445312 -25.566406 C 33.402344 -33.496094 34.992188 -41.429688 36.484375 -49.359375 C 46 -49.359375 55.425781 -49.359375 64.941406 -49.359375 C 69.328125 -49.359375 72.125 -45.90625 71.195312 -41.523438 C 71.195312 -41.242188 71.195312 -40.960938 70.914062 -40.773438 C 70.539062 -38.535156 69.980469 -36.390625 69.605469 -34.152344 C 69.605469 -33.871094 69.421875 -33.777344 69.328125 -33.402344 C 68.394531 -29.113281 64.289062 -25.566406 59.808594 -25.566406 Z M 59.808594 -25.566406 "/></g></g></g><g fill="#ffffff" fill-opacity="1"><g transform="translate(226.997741, 102.853007)"><g><path d="M 0 0 C 8.769531 0 17.636719 0 26.40625 0 C 28.644531 -10.542969 30.886719 -21.085938 33.03125 -31.722656 C 37.507812 -21.085938 41.894531 -10.542969 46 0 C 53.558594 0 61.394531 0 68.953125 0 C 77.820312 -10.542969 86.683594 -21.085938 95.171875 -31.722656 C 92.933594 -21.085938 90.789062 -10.542969 88.546875 0 C 97.414062 0 106.183594 0 115.046875 0 C 117.195312 -9.238281 119.152344 -18.566406 121.019531 -27.898438 C 122.886719 -37.230469 124.753906 -46.558594 126.992188 -55.984375 C 115.609375 -55.984375 104.972656 -55.984375 93.867188 -55.984375 C 82.855469 -42.734375 71.847656 -29.484375 61.117188 -16.234375 C 55.425781 -29.484375 50.105469 -42.734375 44.695312 -55.984375 C 30.511719 -55.984375 16.703125 -55.984375 2.519531 -55.984375 C 6.90625 -49.828125 11.945312 -43.855469 16.980469 -37.789062 C 14.183594 -39.097656 11.289062 -40.496094 8.769531 -41.800781 C 5.972656 -27.898438 3.078125 -13.902344 0 0 Z M 0 0 "/></g></g></g><g fill="#ffffff" fill-opacity="1"><g transform="translate(358.744038, 102.853007)"><g><path d="M 0 0 C 8.769531 0 17.636719 0 26.125 0 C 28.367188 -9.238281 30.230469 -18.566406 32.097656 -27.898438 C 33.964844 -37.230469 35.921875 -46.558594 38.070312 -55.984375 C 26.125 -55.984375 14.460938 -55.984375 2.519531 -55.984375 C 7.183594 -49.828125 11.664062 -43.855469 16.703125 -37.789062 C 13.808594 -39.097656 11.289062 -40.496094 8.769531 -41.800781 C 5.972656 -27.898438 3.078125 -13.902344 0 0 Z M 0 0 "/></g></g></g><g fill="#ffffff" fill-opacity="1"><g transform="translate(401.570894, 102.853007)"><g><path d="M 70.261719 -19.96875 C 61.394531 -31.910156 52.90625 -43.949219 44.695312 -55.984375 C 30.230469 -55.984375 16.328125 -55.984375 2.519531 -55.984375 C 6.90625 -49.828125 11.945312 -43.855469 16.703125 -37.789062 C 13.808594 -39.097656 11.289062 -40.496094 8.769531 -41.800781 C 5.972656 -27.898438 2.800781 -13.902344 0 0 C 8.492188 0 17.261719 0 26.40625 0 C 28.925781 -11.945312 31.445312 -23.886719 33.964844 -35.921875 C 42.175781 -23.886719 50.664062 -11.945312 59.25 0 C 61.394531 0 63.636719 0 65.875 0 C 74.367188 0 83.136719 0 92 0 C 93.867188 -9.238281 96.105469 -18.566406 97.972656 -27.898438 C 99.933594 -37.230469 101.796875 -46.558594 103.664062 -55.984375 C 94.800781 -55.984375 86.308594 -55.984375 77.539062 -55.984375 C 75.019531 -43.949219 72.78125 -31.910156 70.261719 -19.96875 Z M 70.261719 -19.96875 "/></g></g></g></svg>