<svg xmlns="http://www.w3.org/2000/svg" xmlns:xlink="http://www.w3.org/1999/xlink" width="120" zoomAndPan="magnify" viewBox="0 0 90 89.999999" height="120" preserveAspectRatio="xMidYMid meet" version="1.0"><defs><clipPath id="id1"><path d="M 37 78 L 53 78 L 53 84.96875 L 37 84.96875 Z M 37 78 " clip-rule="nonzero"/></clipPath><clipPath id="id2"><path d="M 44 4.71875 L 46 4.71875 L 46 14 L 44 14 Z M 44 4.71875 " clip-rule="nonzero"/></clipPath><clipPath id="id3"><path d="M 72 41 L 81.660156 41 L 81.660156 43 L 72 43 Z M 72 41 " clip-rule="nonzero"/></clipPath><clipPath id="id4"><path d="M 8.160156 41 L 17 41 L 17 43 L 8.160156 43 Z M 8.160156 41 " clip-rule="nonzero"/></clipPath></defs><g clip-path="url(#id1)"><path fill="#ff8210" d="M 37.417969 78.214844 C 37.917969 82.035156 41.179688 84.988281 45.140625 84.988281 C 49.101562 84.988281 52.363281 82.035156 52.863281 78.214844 L 37.417969 78.214844 " fill-opacity="1" fill-rule="nonzero"/></g><path fill="#ff8210" d="M 45.140625 20.511719 C 33.453125 20.554688 23.328125 29.464844 23.996094 40.457031 C 24.601562 50.457031 28.257812 51.226562 30.929688 59.40625 C 33.78125 68.117188 38.539062 74.679688 44.226562 74.679688 L 46.054688 74.679688 C 51.742188 74.679688 56.5 68.117188 59.351562 59.40625 C 62.023438 51.226562 65.679688 50.457031 66.285156 40.457031 C 66.953125 29.464844 56.828125 20.554688 45.140625 20.511719 " fill-opacity="1" fill-rule="nonzero"/><path fill="#39457c" d="M 46.238281 74.617188 C 46.238281 74.949219 45.746094 75.222656 45.140625 75.222656 C 44.53125 75.222656 44.039062 74.949219 44.039062 74.617188 L 44.039062 53.164062 C 44.039062 52.832031 44.53125 52.558594 45.140625 52.558594 C 45.746094 52.558594 46.238281 52.832031 46.238281 53.164062 L 46.238281 74.617188 " fill-opacity="1" fill-rule="nonzero"/><g clip-path="url(#id2)"><path fill="#39457c" d="M 45.796875 12.855469 C 45.796875 12.984375 45.5 13.371094 45.140625 13.371094 C 44.78125 13.371094 44.488281 12.984375 44.488281 12.855469 L 44.488281 5.25 C 44.488281 5.121094 44.78125 4.734375 45.140625 4.734375 C 45.5 4.734375 45.796875 5.121094 45.796875 5.25 L 45.796875 12.855469 " fill-opacity="1" fill-rule="nonzero"/></g><g clip-path="url(#id3)"><path fill="#39457c" d="M 81.082031 41.339844 C 81.210938 41.339844 81.601562 41.636719 81.601562 41.996094 C 81.601562 42.355469 81.210938 42.648438 81.082031 42.648438 L 73.464844 42.648438 C 73.339844 42.648438 72.949219 42.355469 72.949219 41.996094 C 72.949219 41.636719 73.339844 41.339844 73.464844 41.339844 L 81.082031 41.339844 " fill-opacity="1" fill-rule="nonzero"/></g><g clip-path="url(#id4)"><path fill="#39457c" d="M 16.386719 41.339844 C 16.515625 41.339844 16.90625 41.636719 16.90625 41.996094 C 16.90625 42.355469 16.515625 42.648438 16.386719 42.648438 L 8.769531 42.648438 C 8.644531 42.648438 8.253906 42.355469 8.253906 41.996094 C 8.253906 41.636719 8.644531 41.339844 8.769531 41.339844 L 16.386719 41.339844 " fill-opacity="1" fill-rule="nonzero"/></g><path fill="#39457c" d="M 70.03125 16 C 70.121094 15.910156 70.605469 15.84375 70.859375 16.097656 C 71.113281 16.355469 71.046875 16.835938 70.957031 16.929688 L 65.570312 22.304688 C 65.480469 22.394531 64.996094 22.464844 64.742188 22.207031 C 64.488281 21.953125 64.554688 21.472656 64.644531 21.378906 L 70.03125 16 " fill-opacity="1" fill-rule="nonzero"/><path fill="#39457c" d="M 24.285156 61.683594 C 24.375 61.597656 24.855469 61.527344 25.109375 61.78125 C 25.367188 62.039062 25.300781 62.519531 25.207031 62.609375 L 19.824219 67.988281 C 19.734375 68.078125 19.25 68.144531 18.992188 67.890625 C 18.738281 67.636719 18.808594 67.152344 18.898438 67.0625 L 24.285156 61.683594 " fill-opacity="1" fill-rule="nonzero"/><path fill="#39457c" d="M 19.824219 16 C 19.734375 15.910156 19.25 15.84375 18.992188 16.097656 C 18.738281 16.355469 18.808594 16.835938 18.898438 16.929688 L 24.285156 22.304688 C 24.375 22.394531 24.855469 22.464844 25.109375 22.207031 C 25.367188 21.953125 25.300781 21.472656 25.207031 21.378906 L 19.824219 16 " fill-opacity="1" fill-rule="nonzero"/><path fill="#39457c" d="M 65.570312 61.683594 C 65.480469 61.597656 64.996094 61.527344 64.742188 61.78125 C 64.488281 62.039062 64.554688 62.519531 64.644531 62.609375 L 70.03125 67.988281 C 70.121094 68.078125 70.605469 68.144531 70.859375 67.890625 C 71.113281 67.636719 71.046875 67.152344 70.957031 67.0625 L 65.570312 61.683594 " fill-opacity="1" fill-rule="nonzero"/><path fill="#39457c" d="M 55.171875 73.070312 C 55.171875 73.960938 54.449219 74.679688 53.5625 74.679688 L 36.71875 74.679688 C 35.832031 74.679688 35.109375 73.960938 35.109375 73.070312 C 35.109375 72.183594 35.832031 71.464844 36.71875 71.464844 L 53.5625 71.464844 C 54.449219 71.464844 55.171875 72.183594 55.171875 73.070312 " fill-opacity="1" fill-rule="nonzero"/><path fill="#39457c" d="M 55.171875 76.289062 C 55.171875 77.171875 54.449219 77.894531 53.5625 77.894531 L 36.71875 77.894531 C 35.832031 77.894531 35.109375 77.171875 35.109375 76.289062 C 35.109375 75.398438 35.832031 74.679688 36.71875 74.679688 L 53.5625 74.679688 C 54.449219 74.679688 55.171875 75.398438 55.171875 76.289062 " fill-opacity="1" fill-rule="nonzero"/><path fill="#39457c" d="M 55.171875 79.5 C 55.171875 80.386719 54.449219 81.105469 53.5625 81.105469 L 36.71875 81.105469 C 35.832031 81.105469 35.109375 80.386719 35.109375 79.5 C 35.109375 78.609375 35.832031 77.894531 36.71875 77.894531 L 53.5625 77.894531 C 54.449219 77.894531 55.171875 78.609375 55.171875 79.5 " fill-opacity="1" fill-rule="nonzero"/></svg>