<svg xmlns="http://www.w3.org/2000/svg" xmlns:xlink="http://www.w3.org/1999/xlink" width="120" zoomAndPan="magnify" viewBox="0 0 90 89.999999" height="120" preserveAspectRatio="xMidYMid meet" version="1.0"><defs><clipPath id="id1"><path d="M 3.535156 2.976562 L 86.785156 2.976562 L 86.785156 86 L 3.535156 86 Z M 3.535156 2.976562 " clip-rule="nonzero"/></clipPath><clipPath id="id2"><path d="M 45 41 L 86.785156 41 L 86.785156 57 L 45 57 Z M 45 41 " clip-rule="nonzero"/></clipPath></defs><path fill="rgb(100%, 100%, 100%)" d="M 6.203125 56.742188 C 6.203125 56.742188 21.15625 39.640625 38.019531 48.902344 C 54.886719 58.171875 64.449219 59.804688 84.121094 56.742188 C 84.121094 56.742188 74.167969 89.226562 37.484375 84.4375 C 37.484375 84.4375 13.46875 80.738281 6.203125 56.742188 " fill-opacity="1" fill-rule="nonzero"/><g clip-path="url(#id1)"><path fill="rgb(100%, 100%, 100%)" d="M 45.160156 4.304688 C 22.960938 4.304688 4.898438 22.289062 4.898438 44.398438 C 4.898438 66.503906 22.960938 84.492188 45.160156 84.492188 C 67.363281 84.492188 85.421875 66.503906 85.421875 44.398438 C 85.421875 22.289062 67.363281 4.304688 45.160156 4.304688 Z M 45.160156 85.816406 C 22.226562 85.816406 3.5625 67.238281 3.5625 44.398438 C 3.5625 21.554688 22.226562 2.976562 45.160156 2.976562 C 68.09375 2.976562 86.757812 21.554688 86.757812 44.398438 C 86.757812 67.238281 68.09375 85.816406 45.160156 85.816406 " fill-opacity="1" fill-rule="nonzero"/></g><g clip-path="url(#id2)"><path fill="rgb(100%, 100%, 100%)" d="M 45.980469 52.941406 C 45.980469 52.941406 73.230469 52.3125 86.097656 41.183594 C 86.097656 41.183594 85.699219 48.050781 85.414062 54.257812 C 85.414062 54.257812 62.671875 59.664062 45.980469 52.941406 " fill-opacity="1" fill-rule="nonzero"/></g><path fill="rgb(100%, 100%, 100%)" d="M 35.144531 18.738281 L 42.386719 24.824219 C 42.386719 24.824219 47.835938 14.242188 29.914062 11.109375 C 29.914062 11.109375 27.566406 28.789062 41.269531 26.035156 L 35.144531 18.738281 " fill-opacity="1" fill-rule="nonzero"/><path fill="rgb(100%, 100%, 100%)" d="M 62.65625 28.21875 L 54.566406 33.144531 C 54.566406 33.144531 62.933594 41.628906 71.582031 25.683594 C 71.582031 25.683594 55.46875 17.886719 53.765625 31.703125 L 62.65625 28.21875 " fill-opacity="1" fill-rule="nonzero"/><path fill="rgb(100%, 100%, 100%)" d="M 46.667969 55.8125 C 46.300781 55.8125 45.996094 55.519531 45.996094 55.144531 L 45.996094 39.445312 C 45.996094 39.375 45.960938 32.152344 42.652344 28.144531 C 42.421875 27.859375 42.457031 27.441406 42.742188 27.207031 C 43.027344 26.972656 43.445312 27.015625 43.679688 27.300781 C 47.300781 31.679688 47.335938 39.132812 47.335938 39.453125 L 47.335938 55.144531 C 47.335938 55.519531 47.03125 55.8125 46.667969 55.8125 " fill-opacity="1" fill-rule="nonzero"/><path fill="rgb(100%, 100%, 100%)" d="M 46.667969 42.410156 C 46.613281 42.410156 46.558594 42.402344 46.507812 42.394531 C 46.148438 42.304688 45.925781 41.941406 46.015625 41.585938 C 46.078125 41.335938 47.59375 35.433594 52.0625 33.417969 C 52.390625 33.265625 52.792969 33.414062 52.945312 33.746094 C 53.097656 34.082031 52.945312 34.476562 52.613281 34.625 C 48.726562 36.378906 47.328125 41.851562 47.316406 41.90625 C 47.238281 42.207031 46.96875 42.410156 46.667969 42.410156 " fill-opacity="1" fill-rule="nonzero"/><path fill="rgb(100%, 100%, 100%)" d="M 13.027344 57.71875 C 12.847656 57.71875 12.671875 57.648438 12.542969 57.515625 C 12.289062 57.25 12.300781 56.824219 12.566406 56.574219 C 12.675781 56.46875 23.78125 46.257812 38.613281 55.046875 C 38.929688 55.234375 39.035156 55.640625 38.847656 55.960938 C 38.65625 56.273438 38.25 56.378906 37.933594 56.191406 C 23.984375 47.917969 13.90625 57.144531 13.484375 57.542969 C 13.355469 57.667969 13.191406 57.71875 13.027344 57.71875 " fill-opacity="1" fill-rule="nonzero"/></svg>