<svg xmlns="http://www.w3.org/2000/svg" xmlns:xlink="http://www.w3.org/1999/xlink" width="120" zoomAndPan="magnify" viewBox="0 0 90 89.999999" height="120" preserveAspectRatio="xMidYMid meet" version="1.0"><defs><clipPath id="id1"><path d="M 3 3.601562 L 87 3.601562 L 87 86.101562 L 3 86.101562 Z M 3 3.601562 " clip-rule="nonzero"/></clipPath></defs><g clip-path="url(#id1)"><path fill="rgb(100%, 100%, 100%)" d="M 45 3.601562 C 33.9375 3.601562 23.515625 7.867188 15.738281 15.691406 C 3.605469 27.710938 0.179688 45.632812 7.03125 61.277344 C 7.386719 62.0625 8.171875 62.558594 9.027344 62.558594 C 9.3125 62.558594 9.597656 62.488281 9.886719 62.417969 C 10.957031 61.917969 11.453125 60.710938 11.027344 59.644531 C 4.816406 45.5625 7.886719 29.488281 18.734375 18.675781 C 25.800781 11.707031 35.078125 7.867188 45 7.867188 C 53.351562 7.867188 61.273438 10.570312 67.769531 15.621094 L 63.984375 16.046875 C 62.84375 16.1875 61.988281 17.253906 62.128906 18.394531 C 62.273438 19.460938 63.199219 20.242188 64.269531 20.242188 L 64.554688 20.242188 L 73.121094 19.246094 C 74.261719 19.105469 75.046875 18.109375 74.976562 16.972656 L 74.476562 8.933594 C 74.40625 7.726562 73.40625 6.871094 72.191406 6.941406 C 70.980469 7.011719 70.125 8.007812 70.195312 9.21875 L 70.335938 12.132812 C 63.128906 6.65625 54.277344 3.601562 45 3.601562 Z M 80.871094 26.949219 C 80.59375 26.953125 80.3125 27.015625 80.042969 27.140625 C 78.972656 27.636719 78.472656 28.847656 78.972656 29.984375 C 85.183594 44.066406 82.1875 60.210938 71.265625 71.09375 C 64.199219 77.992188 54.921875 81.832031 45 81.832031 C 36.648438 81.832031 28.726562 79.128906 22.230469 74.082031 L 26.015625 73.652344 C 27.15625 73.511719 28.011719 72.445312 27.871094 71.304688 C 27.726562 70.167969 26.65625 69.316406 25.515625 69.457031 L 16.949219 70.453125 C 15.808594 70.59375 15.023438 71.589844 15.09375 72.730469 L 15.59375 80.765625 C 15.667969 81.902344 16.59375 82.757812 17.734375 82.757812 L 17.878906 82.757812 C 19.089844 82.6875 19.949219 81.691406 19.878906 80.480469 L 19.734375 77.566406 C 26.871094 83.042969 35.722656 86.101562 45 86.101562 C 56.0625 86.101562 66.484375 81.832031 74.261719 74.007812 C 86.46875 61.847656 89.820312 43.925781 82.898438 28.207031 C 82.523438 27.40625 81.707031 26.925781 80.871094 26.949219 Z M 36.792969 29.203125 C 35.578125 29.203125 34.652344 30.128906 34.652344 31.335938 C 34.652344 32.546875 35.578125 33.46875 36.792969 33.46875 L 43.789062 33.46875 C 45.785156 33.683594 47.425781 34.894531 48.28125 36.316406 L 36.792969 36.316406 C 35.578125 36.316406 34.652344 37.238281 34.652344 38.449219 C 34.652344 39.65625 35.578125 40.582031 36.792969 40.582031 L 48.425781 40.582031 C 47.640625 42.289062 45.929688 43.425781 43.929688 43.425781 L 36.792969 43.425781 C 35.9375 43.425781 35.078125 43.996094 34.792969 44.777344 C 34.507812 45.632812 34.722656 46.554688 35.363281 47.125 L 49.640625 59.925781 C 50.066406 60.28125 50.566406 60.496094 51.066406 60.496094 C 51.636719 60.496094 52.207031 60.28125 52.636719 59.785156 C 53.421875 58.933594 53.351562 57.582031 52.496094 56.800781 L 42.359375 47.695312 L 43.929688 47.695312 C 48.355469 47.695312 51.992188 44.636719 52.992188 40.582031 L 53.207031 40.582031 C 54.421875 40.582031 55.347656 39.65625 55.347656 38.449219 C 55.347656 37.238281 54.421875 36.316406 53.207031 36.316406 L 52.921875 36.316406 C 52.636719 35.320312 52.207031 34.324219 51.566406 33.46875 L 53.207031 33.46875 C 54.421875 33.46875 55.347656 32.546875 55.347656 31.335938 C 55.347656 30.128906 54.421875 29.203125 53.207031 29.203125 Z M 36.792969 29.203125 " fill-opacity="1" fill-rule="nonzero"/></g></svg>