<svg xmlns="http://www.w3.org/2000/svg" xmlns:xlink="http://www.w3.org/1999/xlink" width="120" zoomAndPan="magnify" viewBox="0 0 90 89.999999" height="120" preserveAspectRatio="xMidYMid meet" version="1.0"><defs><clipPath id="id1"><path d="M 1.40625 3 L 88.40625 3 L 88.40625 87.40625 L 1.40625 87.40625 Z M 1.40625 3 " clip-rule="nonzero"/></clipPath></defs><g clip-path="url(#id1)"><path fill="rgb(100%, 100%, 100%)" d="M 43.394531 82.339844 C 21.816406 82.339844 4.5 63.683594 6.648438 41.605469 C 8.339844 24.175781 22.117188 10.269531 39.488281 8.46875 C 56.628906 6.695312 71.734375 16.765625 77.65625 31.503906 C 77.660156 31.515625 77.65625 31.527344 77.644531 31.53125 L 73.132812 32.953125 C 72.191406 33.25 71.921875 34.460938 72.648438 35.132812 L 82.996094 44.660156 C 83.726562 45.332031 84.90625 44.960938 85.121094 43.992188 L 88.175781 30.238281 C 88.390625 29.269531 87.476562 28.429688 86.535156 28.730469 L 82.535156 29.988281 C 82.527344 29.992188 82.515625 29.988281 82.511719 29.976562 C 80.605469 25.074219 77.769531 20.542969 74.101562 16.597656 C 65.675781 7.546875 53.65625 2.65625 41.320312 3.253906 C 30.886719 3.757812 21.148438 8.074219 13.710938 15.535156 C 5.785156 23.484375 1.417969 34.058594 1.417969 45.304688 C 1.417969 56.550781 5.785156 67.121094 13.710938 75.074219 C 21.640625 83.027344 32.179688 87.40625 43.394531 87.40625 C 54.605469 87.40625 65.148438 83.027344 73.074219 75.074219 C 78.371094 69.761719 82.074219 63.28125 83.953125 56.210938 C 84.378906 54.613281 83.1875 53.042969 81.539062 53.042969 L 81.476562 53.042969 C 80.34375 53.042969 79.355469 53.808594 79.058594 54.90625 C 74.832031 70.6875 60.445312 82.339844 43.394531 82.339844 " fill-opacity="1" fill-rule="nonzero"/></g><path fill="rgb(100%, 100%, 100%)" d="M 26.03125 44.746094 C 25.886719 38.660156 32.601562 34.386719 38.492188 37.726562 C 40.433594 38.824219 42.082031 40.457031 43.851562 42.234375 C 43.933594 42.316406 43.972656 42.308594 44.046875 42.234375 C 46.816406 39.46875 50.832031 35.253906 56.449219 36.894531 C 58.816406 37.585938 60.460938 39.101562 61.300781 41.390625 C 64.121094 49.046875 56.035156 55.382812 49.105469 51.183594 C 47.355469 50.121094 45.84375 48.660156 44.058594 46.863281 C 43.964844 46.765625 43.921875 46.78125 43.835938 46.867188 C 41.808594 48.890625 39.625 51.089844 36.929688 52.007812 C 31.441406 53.882812 26.183594 50.648438 26.03125 44.746094 Z M 29.464844 44.625 C 29.640625 48.140625 32.371094 49.78125 35.285156 49.15625 C 37.800781 48.617188 39.914062 46.429688 41.710938 44.601562 C 41.773438 44.539062 41.738281 44.515625 41.695312 44.476562 C 40.132812 43.03125 38.609375 41.273438 36.6875 40.363281 C 32.960938 38.609375 29.453125 41.183594 29.464844 44.625 Z M 58.433594 44.476562 C 58.324219 41.082031 55.613281 39.230469 52.492188 39.953125 C 50.035156 40.523438 47.9375 42.703125 46.191406 44.476562 C 46.132812 44.539062 46.15625 44.566406 46.203125 44.613281 C 48.386719 46.625 50.957031 49.804688 54.433594 49.222656 C 56.75 48.835938 58.4375 46.84375 58.433594 44.476562 Z M 58.433594 44.476562 " fill-opacity="1" fill-rule="nonzero"/></svg>