<svg xmlns="http://www.w3.org/2000/svg" xmlns:xlink="http://www.w3.org/1999/xlink" width="120" zoomAndPan="magnify" viewBox="0 0 90 89.999999" height="120" preserveAspectRatio="xMidYMid meet" version="1.0"><defs><clipPath id="id1"><path d="M 1.328125 45 L 87.226562 45 L 87.226562 87.597656 L 1.328125 87.597656 Z M 1.328125 45 " clip-rule="nonzero"/></clipPath><clipPath id="id2"><path d="M 2.246094 2.4375 L 88.304688 2.4375 L 88.304688 45.328125 L 2.246094 45.328125 Z M 2.246094 2.4375 " clip-rule="nonzero"/></clipPath><clipPath id="id3"><path d="M 30 21 L 60 21 L 60 69 L 30 69 Z M 30 21 " clip-rule="nonzero"/></clipPath><clipPath id="id4"><path d="M 38.644531 17.433594 L 65.808594 26.054688 L 51.058594 72.519531 L 23.894531 63.894531 Z M 38.644531 17.433594 " clip-rule="nonzero"/></clipPath><clipPath id="id5"><path d="M 38.644531 17.433594 L 65.808594 26.054688 L 51.058594 72.519531 L 23.894531 63.894531 Z M 38.644531 17.433594 " clip-rule="nonzero"/></clipPath></defs><g clip-path="url(#id1)"><path fill="rgb(22.349548%, 27.059937%, 48.629761%)" d="M 73.058594 74.039062 C 56.328125 88.585938 31.441406 86.507812 18.046875 69.988281 C 14.46875 65.570312 11.898438 59.753906 11.832031 58.40625 L 16.8125 56.382812 C 12.816406 53.929688 9.09375 50.195312 6.253906 45.367188 C 3.523438 50.226562 1.699219 56.15625 1.328125 62.679688 L 5.445312 61.003906 C 18.007812 90.441406 53.816406 95.710938 74.433594 75.453125 C 82.289062 67.746094 87.195312 56.949219 87.175781 45.003906 C 86.535156 56.296875 81.480469 66.726562 73.058594 74.039062 " fill-opacity="1" fill-rule="nonzero"/></g><g clip-path="url(#id2)"><path fill="rgb(22.349548%, 27.059937%, 48.629761%)" d="M 5.789062 28.496094 C 3.609375 33.707031 2.492188 39.363281 2.503906 45.003906 C 2.820312 39.363281 4.261719 33.839844 6.699219 28.878906 C 20.871094 -0.113281 61.742188 -2.054688 76.378906 27.636719 C 77.847656 31.042969 77.808594 31.054688 77.808594 31.515625 L 72.839844 33.554688 C 76.839844 35.996094 80.574219 39.722656 83.421875 44.542969 C 86.140625 39.675781 87.953125 33.742188 88.308594 27.21875 L 84.195312 28.902344 C 68.90625 -6.910156 20.070312 -5.714844 5.789062 28.496094 " fill-opacity="1" fill-rule="nonzero"/></g><g clip-path="url(#id3)"><g clip-path="url(#id4)"><g clip-path="url(#id5)"><path fill="rgb(100%, 50.979614%, 6.269836%)" d="M 52.226562 21.742188 C 52.007812 21.675781 51.789062 21.675781 51.570312 21.742188 C 51.351562 21.8125 51.171875 21.9375 51.027344 22.121094 L 31.285156 41.757812 C 30.960938 42.035156 30.734375 42.375 30.605469 42.777344 C 30.515625 43.058594 30.484375 43.34375 30.507812 43.636719 C 30.53125 43.929688 30.609375 44.207031 30.742188 44.464844 C 30.875 44.726562 31.054688 44.949219 31.273438 45.140625 C 31.496094 45.328125 31.746094 45.464844 32.023438 45.554688 L 42.464844 48.867188 L 36.765625 66.820312 C 36.722656 66.960938 36.707031 67.105469 36.71875 67.25 C 36.730469 67.398438 36.769531 67.535156 36.835938 67.664062 C 36.902344 67.792969 36.988281 67.90625 37.101562 68 C 37.210938 68.09375 37.335938 68.164062 37.476562 68.207031 C 37.898438 68.34375 38.269531 68.25 38.585938 67.929688 L 58.480469 48.144531 L 58.476562 48.140625 C 58.769531 47.875 58.976562 47.550781 59.097656 47.175781 C 59.1875 46.894531 59.21875 46.609375 59.195312 46.316406 C 59.171875 46.023438 59.09375 45.746094 58.960938 45.488281 C 58.828125 45.226562 58.648438 45.003906 58.425781 44.8125 C 58.207031 44.625 57.957031 44.488281 57.679688 44.398438 L 47.234375 41.082031 L 52.9375 23.132812 C 52.980469 22.992188 52.996094 22.847656 52.984375 22.703125 C 52.972656 22.554688 52.933594 22.417969 52.867188 22.289062 C 52.800781 22.15625 52.710938 22.046875 52.601562 21.953125 C 52.488281 21.855469 52.367188 21.789062 52.226562 21.742188 Z M 52.226562 21.742188 " fill-opacity="1" fill-rule="nonzero"/></g></g></g></svg>