<svg xmlns="http://www.w3.org/2000/svg" xmlns:xlink="http://www.w3.org/1999/xlink" width="120" zoomAndPan="magnify" viewBox="0 0 90 89.999999" height="120" preserveAspectRatio="xMidYMid meet" version="1.0"><defs><clipPath id="id1"><path d="M 1.40625 3 L 88.40625 3 L 88.40625 87.40625 L 1.40625 87.40625 Z M 1.40625 3 " clip-rule="nonzero"/></clipPath><clipPath id="id2"><path d="M 35.402344 30.871094 L 54.878906 30.871094 L 54.878906 59.371094 L 35.402344 59.371094 Z M 35.402344 30.871094 " clip-rule="nonzero"/></clipPath></defs><g clip-path="url(#id1)"><path fill="rgb(22.349548%, 27.059937%, 48.629761%)" d="M 43.394531 82.339844 C 21.816406 82.339844 4.5 63.683594 6.648438 41.605469 C 8.339844 24.175781 22.117188 10.269531 39.488281 8.46875 C 56.628906 6.695312 71.734375 16.765625 77.65625 31.503906 C 77.660156 31.515625 77.65625 31.527344 77.644531 31.53125 L 73.132812 32.953125 C 72.191406 33.25 71.921875 34.460938 72.648438 35.132812 L 82.996094 44.660156 C 83.726562 45.332031 84.90625 44.960938 85.121094 43.992188 L 88.175781 30.238281 C 88.390625 29.269531 87.476562 28.429688 86.535156 28.730469 L 82.535156 29.988281 C 82.527344 29.992188 82.515625 29.988281 82.511719 29.976562 C 80.605469 25.074219 77.769531 20.542969 74.101562 16.597656 C 65.675781 7.546875 53.65625 2.65625 41.320312 3.253906 C 30.886719 3.757812 21.148438 8.074219 13.710938 15.535156 C 5.785156 23.484375 1.417969 34.058594 1.417969 45.304688 C 1.417969 56.550781 5.785156 67.121094 13.710938 75.074219 C 21.640625 83.027344 32.179688 87.40625 43.394531 87.40625 C 54.605469 87.40625 65.148438 83.027344 73.074219 75.074219 C 78.371094 69.761719 82.074219 63.28125 83.953125 56.210938 C 84.378906 54.613281 83.1875 53.042969 81.539062 53.042969 L 81.476562 53.042969 C 80.34375 53.042969 79.355469 53.808594 79.058594 54.90625 C 74.832031 70.6875 60.445312 82.339844 43.394531 82.339844 " fill-opacity="1" fill-rule="nonzero"/></g><g clip-path="url(#id2)"><path fill="rgb(100%, 50.979614%, 6.269836%)" d="M 48.371094 33.5625 L 53.078125 33.5625 L 54.878906 30.871094 L 37.207031 30.871094 L 35.402344 33.5625 L 38.46875 33.5625 C 41.578125 33.5625 44.445312 33.800781 45.59375 36.382812 L 37.207031 36.382812 L 35.402344 39.074219 L 45.933594 39.074219 C 45.933594 39.082031 45.933594 39.085938 45.933594 39.09375 C 45.933594 41.027344 44.3125 43.996094 38.96875 43.996094 L 36.382812 43.992188 L 36.386719 46.507812 L 46.742188 59.371094 L 51.355469 59.371094 L 40.636719 46.0625 C 45.046875 45.828125 49.1875 43.378906 49.78125 39.074219 L 53.078125 39.074219 L 54.878906 36.382812 L 49.734375 36.382812 C 49.527344 35.34375 49.078125 34.339844 48.371094 33.5625 " fill-opacity="1" fill-rule="nonzero"/></g></svg>