<svg xmlns="http://www.w3.org/2000/svg" xmlns:xlink="http://www.w3.org/1999/xlink" width="120" zoomAndPan="magnify" viewBox="0 0 90 89.999999" height="120" preserveAspectRatio="xMidYMid meet" version="1.0"><defs><clipPath id="id1"><path d="M 0.789062 0.789062 L 89.289062 0.789062 L 89.289062 89.289062 L 0.789062 89.289062 Z M 0.789062 0.789062 " clip-rule="nonzero"/></clipPath></defs><g clip-path="url(#id1)"><path fill="rgb(22.349548%, 27.059937%, 48.629761%)" d="M 39.363281 81.878906 C 22.152344 79.167969 9.4375 65.121094 8.21875 47.96875 L 9.316406 48.917969 C 9.964844 49.480469 10.941406 49.40625 11.5 48.761719 C 12.058594 48.117188 11.988281 47.136719 11.339844 46.578125 L 7.304688 43.082031 C 6.664062 42.527344 5.699219 42.589844 5.132812 43.222656 L 1.367188 47.460938 C 0.796875 48.097656 0.851562 49.078125 1.492188 49.648438 C 1.785156 49.90625 2.15625 50.035156 2.519531 50.035156 C 2.945312 50.035156 3.371094 49.863281 3.675781 49.515625 L 5.117188 47.898438 C 5.6875 56.578125 9.050781 64.871094 14.753906 71.484375 C 20.96875 78.6875 29.539062 83.464844 38.882812 84.933594 C 38.964844 84.945312 39.046875 84.953125 39.125 84.953125 C 39.875 84.953125 40.535156 84.410156 40.652344 83.644531 C 40.785156 82.800781 40.207031 82.007812 39.363281 81.878906 Z M 83.527344 49.980469 C 82.671875 49.847656 81.886719 50.417969 81.75 51.261719 C 78.941406 68.542969 64.652344 81.265625 47.355469 82.261719 L 48.425781 80.882812 C 48.949219 80.210938 48.828125 79.238281 48.152344 78.710938 C 47.480469 78.1875 46.507812 78.308594 45.980469 78.980469 L 42.703125 83.199219 C 42.179688 83.863281 42.292969 84.828125 42.953125 85.355469 L 47.382812 88.902344 C 47.664062 89.128906 48.007812 89.242188 48.34375 89.242188 C 48.800781 89.242188 49.25 89.042969 49.554688 88.660156 C 50.089844 87.992188 49.980469 87.019531 49.3125 86.484375 L 47.867188 85.328125 C 66.460938 84.105469 81.777344 70.371094 84.804688 51.757812 C 84.941406 50.914062 84.367188 50.121094 83.527344 49.980469 Z M 47.007812 8.332031 C 47.683594 7.824219 47.824219 6.867188 47.324219 6.183594 L 43.980469 1.605469 C 43.472656 0.914062 42.503906 0.765625 41.816406 1.269531 C 41.128906 1.773438 40.976562 2.742188 41.480469 3.433594 L 42.773438 5.199219 C 24.039062 6.292969 8.574219 20.078125 5.539062 38.800781 C 5.402344 39.644531 5.976562 40.4375 6.820312 40.574219 C 6.902344 40.589844 6.988281 40.597656 7.070312 40.597656 C 7.816406 40.597656 8.472656 40.054688 8.59375 39.292969 C 11.335938 22.398438 25.042969 9.851562 41.820312 8.363281 L 40.878906 9.070312 C 40.195312 9.585938 40.058594 10.554688 40.570312 11.238281 C 40.875 11.644531 41.339844 11.855469 41.808594 11.855469 C 42.132812 11.855469 42.460938 11.753906 42.738281 11.546875 Z M 88.722656 43.3125 L 84.746094 47.355469 C 84.445312 47.664062 84.042969 47.820312 83.644531 47.820312 C 83.257812 47.820312 82.875 47.675781 82.574219 47.390625 L 78.714844 43.699219 C 78.097656 43.109375 78.074219 42.128906 78.664062 41.511719 C 79.253906 40.894531 80.234375 40.871094 80.851562 41.460938 L 82.128906 42.683594 C 80.914062 25.601562 67.824219 11.191406 50.714844 8.625 C 49.871094 8.5 49.289062 7.710938 49.417969 6.867188 C 49.542969 6.019531 50.324219 5.4375 51.179688 5.5625 C 60.589844 6.976562 69.226562 11.730469 75.5 18.953125 C 81.21875 25.539062 84.613281 33.800781 85.21875 42.464844 L 86.515625 41.144531 C 87.117188 40.535156 88.09375 40.527344 88.703125 41.125 C 89.3125 41.726562 89.324219 42.703125 88.722656 43.3125 " fill-opacity="1" fill-rule="nonzero"/></g><path fill="rgb(100%, 50.979614%, 6.269836%)" d="M 30.03125 45.035156 C 29.910156 39.601562 35.699219 35.785156 40.785156 38.769531 C 42.460938 39.75 43.882812 41.207031 45.410156 42.796875 C 45.480469 42.867188 45.511719 42.859375 45.578125 42.792969 C 47.96875 40.324219 51.429688 36.5625 56.28125 38.027344 C 58.320312 38.644531 59.738281 40 60.464844 42.039062 C 62.898438 48.875 55.921875 54.535156 49.941406 50.785156 C 48.433594 49.839844 47.128906 48.53125 45.589844 46.925781 C 45.507812 46.839844 45.46875 46.851562 45.394531 46.929688 C 43.644531 48.738281 41.761719 50.699219 39.433594 51.523438 C 34.699219 53.195312 30.164062 50.308594 30.03125 45.035156 Z M 32.996094 44.929688 C 33.144531 48.070312 35.503906 49.53125 38.015625 48.976562 C 40.1875 48.496094 42.011719 46.539062 43.5625 44.90625 C 43.613281 44.851562 43.585938 44.828125 43.550781 44.796875 C 42.203125 43.507812 40.886719 41.933594 39.226562 41.125 C 36.011719 39.558594 32.984375 41.855469 32.996094 44.929688 Z M 57.992188 44.796875 C 57.894531 41.765625 55.558594 40.113281 52.863281 40.757812 C 50.746094 41.269531 48.933594 43.214844 47.429688 44.796875 C 47.375 44.851562 47.398438 44.875 47.4375 44.917969 C 49.320312 46.714844 51.539062 49.550781 54.539062 49.035156 C 56.539062 48.691406 57.996094 46.910156 57.992188 44.796875 Z M 57.992188 44.796875 " fill-opacity="1" fill-rule="nonzero"/></svg>