<svg xmlns="http://www.w3.org/2000/svg" xmlns:xlink="http://www.w3.org/1999/xlink" width="224.87999" zoomAndPan="magnify" viewBox="0 0 224.87999 149.999998" height="149.999998" preserveAspectRatio="xMidYMid meet" version="1.0"><defs><filter x="0%" y="0%" width="100%" xlink:type="simple" xlink:actuate="onLoad" height="100%" id="id1" xlink:show="other"><feColorMatrix values="0 0 0 0 1 0 0 0 0 1 0 0 0 0 1 0 0 0 1 0" color-interpolation-filters="sRGB"/></filter><mask id="id2"><g filter="url(#id1)"><rect x="-22.487999" width="269.855988" fill="rgb(0%, 0%, 0%)" y="-15" height="179.999997" fill-opacity="0.2"/></g></mask><clipPath id="id3"><path d="M 0.046875 0.230469 L 1 0.230469 L 1 1 L 0.046875 1 Z M 0.046875 0.230469 " clip-rule="nonzero"/></clipPath><clipPath id="id4"><path d="M 0.046875 2 L 1 2 L 1 3 L 0.046875 3 Z M 0.046875 2 " clip-rule="nonzero"/></clipPath><clipPath id="id5"><path d="M 0.046875 3 L 1 3 L 1 4 L 0.046875 4 Z M 0.046875 3 " clip-rule="nonzero"/></clipPath><clipPath id="id6"><path d="M 0.046875 4 L 1 4 L 1 5.746094 L 0.046875 5.746094 Z M 0.046875 4 " clip-rule="nonzero"/></clipPath><clipPath id="id7"><path d="M 13 0.230469 L 14 0.230469 L 14 1 L 13 1 Z M 13 0.230469 " clip-rule="nonzero"/></clipPath><clipPath id="id8"><path d="M 13 4 L 14 4 L 14 5.746094 L 13 5.746094 Z M 13 4 " clip-rule="nonzero"/></clipPath><clipPath id="id9"><rect x="0" width="15" y="0" height="6"/></clipPath><mask id="id10"><g filter="url(#id1)"><rect x="-22.487999" width="269.855988" fill="rgb(0%, 0%, 0%)" y="-15" height="179.999997" fill-opacity="0.2"/></g></mask><clipPath id="id11"><path d="M 1 0.230469 L 2 0.230469 L 2 1 L 1 1 Z M 1 0.230469 " clip-rule="nonzero"/></clipPath><clipPath id="id12"><path d="M 1 4 L 2 4 L 2 5.746094 L 1 5.746094 Z M 1 4 " clip-rule="nonzero"/></clipPath><clipPath id="id13"><path d="M 14 0.230469 L 15 0.230469 L 15 1 L 14 1 Z M 14 0.230469 " clip-rule="nonzero"/></clipPath><clipPath id="id14"><path d="M 14 4 L 15 4 L 15 5.746094 L 14 5.746094 Z M 14 4 " clip-rule="nonzero"/></clipPath><clipPath id="id15"><rect x="0" width="16" y="0" height="6"/></clipPath></defs><path fill="rgb(92.158508%, 92.158508%, 92.158508%)" d="M 110.6875 148.636719 C 139.382812 148.636719 162.648438 146.84375 162.648438 144.636719 C 162.648438 142.429688 139.382812 140.640625 110.6875 140.640625 C 81.988281 140.640625 58.726562 142.429688 58.726562 144.636719 C 58.726562 146.84375 81.988281 148.636719 110.6875 148.636719 Z M 110.6875 148.636719 " fill-opacity="1" fill-rule="nonzero"/><path fill="rgb(78.039551%, 78.039551%, 78.039551%)" d="M 181.339844 108.128906 L 41.722656 108.128906 L 41.722656 110.363281 L 181.339844 110.363281 Z M 181.339844 108.128906 " fill-opacity="1" fill-rule="nonzero"/><path fill="rgb(14.898682%, 19.60907%, 21.958923%)" d="M 51.507812 108.128906 C 51.734375 108.855469 51.734375 109.636719 51.507812 110.363281 C 51.390625 110.003906 51.335938 109.625 51.34375 109.246094 C 51.339844 108.867188 51.394531 108.488281 51.507812 108.128906 Z M 51.507812 108.128906 " fill-opacity="1" fill-rule="nonzero"/><path fill="rgb(14.898682%, 19.60907%, 21.958923%)" d="M 62.425781 108.128906 C 62.539062 108.488281 62.59375 108.867188 62.589844 109.246094 C 62.597656 109.625 62.542969 110.003906 62.425781 110.363281 C 62.199219 109.636719 62.199219 108.855469 62.425781 108.128906 Z M 62.425781 108.128906 " fill-opacity="1" fill-rule="nonzero"/><path fill="rgb(14.898682%, 19.60907%, 21.958923%)" d="M 73.335938 108.128906 C 73.554688 108.855469 73.554688 109.636719 73.335938 110.363281 C 73.117188 109.636719 73.117188 108.855469 73.335938 108.128906 Z M 73.335938 108.128906 " fill-opacity="1" fill-rule="nonzero"/><path fill="rgb(14.898682%, 19.60907%, 21.958923%)" d="M 84.25 108.128906 C 84.472656 108.855469 84.472656 109.636719 84.25 110.363281 C 84.132812 110.003906 84.074219 109.625 84.082031 109.246094 C 84.078125 108.867188 84.132812 108.488281 84.25 108.128906 Z M 84.25 108.128906 " fill-opacity="1" fill-rule="nonzero"/><path fill="rgb(14.898682%, 19.60907%, 21.958923%)" d="M 95.164062 108.128906 C 95.277344 108.488281 95.332031 108.867188 95.328125 109.246094 C 95.335938 109.625 95.28125 110.003906 95.164062 110.363281 C 94.941406 109.636719 94.941406 108.855469 95.164062 108.128906 Z M 95.164062 108.128906 " fill-opacity="1" fill-rule="nonzero"/><path fill="rgb(14.898682%, 19.60907%, 21.958923%)" d="M 106.074219 108.128906 C 106.292969 108.855469 106.292969 109.636719 106.074219 110.363281 C 105.851562 109.636719 105.851562 108.855469 106.074219 108.128906 Z M 106.074219 108.128906 " fill-opacity="1" fill-rule="nonzero"/><path fill="rgb(14.898682%, 19.60907%, 21.958923%)" d="M 116.988281 108.128906 C 117.210938 108.855469 117.210938 109.636719 116.988281 110.363281 C 116.769531 109.636719 116.769531 108.855469 116.988281 108.128906 Z M 116.988281 108.128906 " fill-opacity="1" fill-rule="nonzero"/><path fill="rgb(14.898682%, 19.60907%, 21.958923%)" d="M 127.898438 108.128906 C 128.125 108.855469 128.125 109.636719 127.898438 110.363281 C 127.78125 110.003906 127.726562 109.625 127.734375 109.246094 C 127.730469 108.867188 127.785156 108.488281 127.898438 108.128906 Z M 127.898438 108.128906 " fill-opacity="1" fill-rule="nonzero"/><path fill="rgb(14.898682%, 19.60907%, 21.958923%)" d="M 138.816406 108.128906 C 138.929688 108.488281 138.988281 108.867188 138.980469 109.246094 C 138.988281 109.625 138.933594 110.003906 138.816406 110.363281 C 138.59375 109.636719 138.59375 108.855469 138.816406 108.128906 Z M 138.816406 108.128906 " fill-opacity="1" fill-rule="nonzero"/><path fill="rgb(14.898682%, 19.60907%, 21.958923%)" d="M 149.726562 108.128906 C 149.945312 108.855469 149.945312 109.636719 149.726562 110.363281 C 149.507812 109.636719 149.507812 108.855469 149.726562 108.128906 Z M 149.726562 108.128906 " fill-opacity="1" fill-rule="nonzero"/><path fill="rgb(14.898682%, 19.60907%, 21.958923%)" d="M 160.640625 108.128906 C 160.863281 108.855469 160.863281 109.636719 160.640625 110.363281 C 160.523438 110.003906 160.464844 109.625 160.476562 109.246094 C 160.46875 108.867188 160.523438 108.488281 160.640625 108.128906 Z M 160.640625 108.128906 " fill-opacity="1" fill-rule="nonzero"/><path fill="rgb(14.898682%, 19.60907%, 21.958923%)" d="M 171.554688 108.128906 C 171.667969 108.488281 171.722656 108.867188 171.71875 109.246094 C 171.726562 109.625 171.671875 110.003906 171.554688 110.363281 C 171.332031 109.636719 171.332031 108.855469 171.554688 108.128906 Z M 171.554688 108.128906 " fill-opacity="1" fill-rule="nonzero"/><path fill="rgb(14.898682%, 19.60907%, 21.958923%)" d="M 39.835938 110.363281 L 57.761719 110.285156 L 75.683594 110.257812 L 111.53125 110.199219 L 147.378906 110.257812 L 165.300781 110.285156 L 183.226562 110.363281 L 165.300781 110.445312 L 147.378906 110.472656 L 111.53125 110.527344 L 75.683594 110.472656 L 57.761719 110.445312 Z M 39.835938 110.363281 " fill-opacity="1" fill-rule="nonzero"/><path fill="rgb(21.569824%, 27.839661%, 30.979919%)" d="M 54.445312 81.574219 C 54.445312 81.574219 61.628906 97.527344 49.902344 97.542969 C 38.175781 97.554688 45.757812 81.039062 45.757812 81.039062 C 45.757812 81.039062 43.042969 79.847656 46.179688 70.9375 C 49.320312 62.03125 50.726562 62.027344 52.035156 62.027344 C 53.679688 62.027344 55.230469 65.882812 54.109375 71.796875 C 54.109375 71.800781 58.246094 79.183594 54.445312 81.574219 Z M 54.445312 81.574219 " fill-opacity="1" fill-rule="nonzero"/><path fill="rgb(14.898682%, 19.60907%, 21.958923%)" d="M 48.871094 108.128906 L 49.976562 84.085938 L 51.132812 108.128906 Z M 48.871094 108.128906 " fill-opacity="1" fill-rule="nonzero"/><path fill="rgb(14.898682%, 19.60907%, 21.958923%)" d="M 49.527344 94.167969 L 53.785156 89.179688 L 50.449219 94.824219 Z M 49.527344 94.167969 " fill-opacity="1" fill-rule="nonzero"/><path fill="rgb(27.059937%, 35.289001%, 39.219666%)" d="M 168.425781 83.292969 C 168.425781 83.292969 165.082031 81.976562 162.433594 86.582031 C 159.714844 91.324219 163.128906 94.4375 165.835938 92.578125 C 165.835938 92.578125 167.964844 97.035156 172.210938 95.96875 C 176.460938 94.902344 177.148438 91.503906 177.148438 91.503906 C 177.148438 91.503906 180.914062 91.765625 181.019531 88.949219 C 181.125 86.136719 178.359375 83.648438 178.359375 83.648438 C 178.359375 83.648438 178.191406 76.636719 173.628906 76.699219 C 169.0625 76.757812 168.425781 83.292969 168.425781 83.292969 Z M 168.425781 83.292969 " fill-opacity="1" fill-rule="nonzero"/><path fill="rgb(14.898682%, 19.60907%, 21.958923%)" d="M 171.558594 108.121094 L 172.492188 87.269531 L 173.472656 108.117188 Z M 171.558594 108.121094 " fill-opacity="1" fill-rule="nonzero"/><path fill="rgb(14.898682%, 19.60907%, 21.958923%)" d="M 172.21875 95.105469 L 169.28125 89.257812 L 172.699219 94.191406 Z M 172.21875 95.105469 " fill-opacity="1" fill-rule="nonzero"/><path fill="rgb(27.059937%, 35.289001%, 39.219666%)" d="M 70.1875 83.292969 C 70.1875 83.292969 66.84375 81.976562 64.191406 86.582031 C 61.476562 91.324219 64.890625 94.4375 67.597656 92.578125 C 67.597656 92.578125 69.726562 97.035156 73.972656 95.96875 C 78.214844 94.902344 78.90625 91.503906 78.90625 91.503906 C 78.90625 91.503906 82.679688 91.765625 82.78125 88.949219 C 82.882812 86.136719 80.121094 83.648438 80.121094 83.648438 C 80.121094 83.648438 79.941406 76.636719 75.382812 76.703125 C 70.824219 76.769531 70.1875 83.292969 70.1875 83.292969 Z M 70.1875 83.292969 " fill-opacity="1" fill-rule="nonzero"/><path fill="rgb(14.898682%, 19.60907%, 21.958923%)" d="M 73.324219 108.121094 L 74.253906 87.269531 L 75.230469 108.117188 Z M 73.324219 108.121094 " fill-opacity="1" fill-rule="nonzero"/><path fill="rgb(14.898682%, 19.60907%, 21.958923%)" d="M 73.976562 95.105469 L 71.042969 89.257812 L 74.460938 94.191406 Z M 73.976562 95.105469 " fill-opacity="1" fill-rule="nonzero"/><path fill="rgb(21.569824%, 27.839661%, 30.979919%)" d="M 157.675781 84.863281 C 157.675781 84.863281 151.421875 98.855469 161.6875 98.839844 C 171.949219 98.828125 165.285156 84.378906 165.285156 84.378906 C 165.285156 84.378906 167.660156 83.332031 164.894531 75.535156 C 162.125 67.742188 160.890625 67.734375 159.75 67.734375 C 158.300781 67.734375 156.957031 71.113281 157.949219 76.289062 C 157.949219 76.308594 154.34375 82.769531 157.675781 84.863281 Z M 157.675781 84.863281 " fill-opacity="1" fill-rule="nonzero"/><path fill="rgb(14.898682%, 19.60907%, 21.958923%)" d="M 162.605469 108.105469 L 161.59375 87.046875 L 160.625 108.109375 Z M 162.605469 108.105469 " fill-opacity="1" fill-rule="nonzero"/><path fill="rgb(14.898682%, 19.60907%, 21.958923%)" d="M 162.003906 95.878906 L 158.265625 91.519531 L 161.203125 96.453125 Z M 162.003906 95.878906 " fill-opacity="1" fill-rule="nonzero"/><path fill="rgb(14.898682%, 19.60907%, 21.958923%)" d="M 64.777344 95.710938 L 64.0625 95.710938 L 64.0625 102.035156 L 64.777344 102.035156 Z M 64.777344 95.710938 " fill-opacity="1" fill-rule="nonzero"/><path fill="rgb(14.898682%, 19.60907%, 21.958923%)" d="M 77.722656 95.710938 L 77.007812 95.710938 L 77.007812 102.035156 L 77.722656 102.035156 Z M 77.722656 95.710938 " fill-opacity="1" fill-rule="nonzero"/><path fill="rgb(100%, 78.039551%, 15.289307%)" d="M 79.589844 96.289062 L 62.195312 96.289062 L 62.195312 97.222656 L 79.589844 97.222656 Z M 79.589844 96.289062 " fill-opacity="1" fill-rule="nonzero"/><path fill="rgb(0%, 0%, 0%)" d="M 79.589844 96.289062 L 62.195312 96.289062 L 62.195312 97.222656 L 79.589844 97.222656 Z M 79.589844 96.289062 " fill-opacity="0.2" fill-rule="nonzero"/><path fill="rgb(100%, 78.039551%, 15.289307%)" d="M 79.589844 97.726562 L 62.195312 97.726562 L 62.195312 98.660156 L 79.589844 98.660156 Z M 79.589844 97.726562 " fill-opacity="1" fill-rule="nonzero"/><path fill="rgb(0%, 0%, 0%)" d="M 79.589844 97.726562 L 62.195312 97.726562 L 62.195312 98.660156 L 79.589844 98.660156 Z M 79.589844 97.726562 " fill-opacity="0.2" fill-rule="nonzero"/><path fill="rgb(100%, 78.039551%, 15.289307%)" d="M 79.589844 99.167969 L 62.195312 99.167969 L 62.195312 100.101562 L 79.589844 100.101562 Z M 79.589844 99.167969 " fill-opacity="1" fill-rule="nonzero"/><path fill="rgb(0%, 0%, 0%)" d="M 79.589844 99.167969 L 62.195312 99.167969 L 62.195312 100.101562 L 79.589844 100.101562 Z M 79.589844 99.167969 " fill-opacity="0.2" fill-rule="nonzero"/><path fill="rgb(100%, 78.039551%, 15.289307%)" d="M 79.589844 100.609375 L 62.195312 100.609375 L 62.195312 101.542969 L 79.589844 101.542969 Z M 79.589844 100.609375 " fill-opacity="1" fill-rule="nonzero"/><path fill="rgb(0%, 0%, 0%)" d="M 79.589844 100.609375 L 62.195312 100.609375 L 62.195312 101.542969 L 79.589844 101.542969 Z M 79.589844 100.609375 " fill-opacity="0.2" fill-rule="nonzero"/><path fill="rgb(100%, 78.039551%, 15.289307%)" d="M 81.367188 102.035156 L 60.660156 102.035156 L 60.660156 103.429688 L 81.367188 103.429688 Z M 81.367188 102.035156 " fill-opacity="1" fill-rule="nonzero"/><path fill="rgb(0%, 0%, 0%)" d="M 81.367188 102.035156 L 60.660156 102.035156 L 60.660156 103.429688 L 81.367188 103.429688 Z M 81.367188 102.035156 " fill-opacity="0.2" fill-rule="nonzero"/><path fill="rgb(14.898682%, 19.60907%, 21.958923%)" d="M 62.535156 103.429688 L 61.824219 103.429688 L 61.824219 108.136719 L 62.535156 108.136719 Z M 62.535156 103.429688 " fill-opacity="1" fill-rule="nonzero"/><path fill="rgb(14.898682%, 19.60907%, 21.958923%)" d="M 80.210938 103.429688 L 79.496094 103.429688 L 79.496094 108.136719 L 80.210938 108.136719 Z M 80.210938 103.429688 " fill-opacity="1" fill-rule="nonzero"/><g mask="url(#id2)"><g transform="matrix(1, 0, 0, 1, 64, 96)"><g clip-path="url(#id9)"><g clip-path="url(#id3)"><path fill="rgb(0%, 0%, 0%)" d="M 0.507812 0.753906 C 0.507812 0.773438 0.5 0.789062 0.492188 0.804688 C 0.484375 0.820312 0.46875 0.832031 0.453125 0.835938 C 0.4375 0.84375 0.417969 0.847656 0.402344 0.84375 C 0.382812 0.839844 0.367188 0.832031 0.355469 0.816406 C 0.34375 0.804688 0.335938 0.789062 0.332031 0.773438 C 0.328125 0.753906 0.328125 0.738281 0.335938 0.722656 C 0.34375 0.707031 0.355469 0.691406 0.367188 0.683594 C 0.382812 0.671875 0.402344 0.667969 0.417969 0.667969 C 0.441406 0.667969 0.464844 0.675781 0.480469 0.691406 C 0.496094 0.710938 0.507812 0.730469 0.507812 0.753906 Z M 0.507812 0.753906 " fill-opacity="0.2" fill-rule="nonzero"/></g><g clip-path="url(#id4)"><path fill="rgb(0%, 0%, 0%)" d="M 0.507812 2.195312 C 0.511719 2.207031 0.511719 2.21875 0.507812 2.230469 C 0.503906 2.246094 0.496094 2.257812 0.488281 2.265625 C 0.480469 2.277344 0.46875 2.285156 0.457031 2.289062 C 0.445312 2.296875 0.433594 2.300781 0.421875 2.300781 C 0.40625 2.300781 0.394531 2.296875 0.382812 2.289062 C 0.371094 2.285156 0.359375 2.277344 0.351562 2.265625 C 0.34375 2.257812 0.335938 2.246094 0.335938 2.230469 C 0.332031 2.21875 0.332031 2.207031 0.332031 2.195312 C 0.335938 2.171875 0.347656 2.15625 0.363281 2.140625 C 0.378906 2.128906 0.398438 2.121094 0.421875 2.121094 C 0.441406 2.121094 0.460938 2.128906 0.476562 2.140625 C 0.492188 2.15625 0.503906 2.171875 0.507812 2.195312 Z M 0.507812 2.195312 " fill-opacity="0.2" fill-rule="nonzero"/></g><g clip-path="url(#id5)"><path fill="rgb(0%, 0%, 0%)" d="M 0.417969 3.722656 C 0.46875 3.722656 0.507812 3.683594 0.507812 3.632812 C 0.507812 3.585938 0.46875 3.546875 0.417969 3.546875 C 0.371094 3.546875 0.328125 3.585938 0.328125 3.632812 C 0.328125 3.683594 0.371094 3.722656 0.417969 3.722656 Z M 0.417969 3.722656 " fill-opacity="0.2" fill-rule="nonzero"/></g><g clip-path="url(#id6)"><path fill="rgb(0%, 0%, 0%)" d="M 0.507812 5.074219 C 0.507812 5.09375 0.5 5.109375 0.492188 5.125 C 0.484375 5.140625 0.46875 5.152344 0.453125 5.15625 C 0.4375 5.164062 0.417969 5.167969 0.402344 5.164062 C 0.382812 5.160156 0.367188 5.152344 0.355469 5.136719 C 0.34375 5.125 0.335938 5.109375 0.332031 5.09375 C 0.328125 5.074219 0.328125 5.058594 0.335938 5.042969 C 0.34375 5.027344 0.355469 5.011719 0.367188 5.003906 C 0.382812 4.992188 0.402344 4.988281 0.417969 4.988281 C 0.441406 4.988281 0.464844 4.996094 0.480469 5.011719 C 0.496094 5.03125 0.507812 5.050781 0.507812 5.074219 Z M 0.507812 5.074219 " fill-opacity="0.2" fill-rule="nonzero"/></g><g clip-path="url(#id7)"><path fill="rgb(0%, 0%, 0%)" d="M 13.453125 0.753906 C 13.453125 0.773438 13.449219 0.789062 13.4375 0.804688 C 13.429688 0.820312 13.414062 0.832031 13.398438 0.835938 C 13.382812 0.84375 13.363281 0.847656 13.347656 0.84375 C 13.328125 0.839844 13.3125 0.832031 13.300781 0.816406 C 13.289062 0.804688 13.28125 0.789062 13.277344 0.773438 C 13.273438 0.753906 13.273438 0.738281 13.28125 0.722656 C 13.289062 0.707031 13.300781 0.691406 13.316406 0.683594 C 13.328125 0.671875 13.347656 0.667969 13.363281 0.667969 C 13.386719 0.667969 13.410156 0.675781 13.425781 0.691406 C 13.445312 0.710938 13.453125 0.730469 13.453125 0.753906 Z M 13.453125 0.753906 " fill-opacity="0.2" fill-rule="nonzero"/></g><path fill="rgb(0%, 0%, 0%)" d="M 13.453125 2.195312 C 13.453125 2.210938 13.449219 2.226562 13.441406 2.242188 C 13.429688 2.257812 13.417969 2.269531 13.398438 2.277344 C 13.382812 2.285156 13.367188 2.289062 13.347656 2.285156 C 13.332031 2.28125 13.316406 2.273438 13.304688 2.261719 C 13.289062 2.25 13.28125 2.234375 13.277344 2.214844 C 13.273438 2.199219 13.273438 2.179688 13.28125 2.164062 C 13.289062 2.148438 13.300781 2.132812 13.316406 2.125 C 13.328125 2.113281 13.347656 2.109375 13.363281 2.109375 C 13.386719 2.109375 13.410156 2.117188 13.425781 2.132812 C 13.441406 2.148438 13.453125 2.171875 13.453125 2.195312 Z M 13.453125 2.195312 " fill-opacity="0.2" fill-rule="nonzero"/><path fill="rgb(0%, 0%, 0%)" d="M 13.453125 3.632812 C 13.453125 3.652344 13.449219 3.667969 13.4375 3.683594 C 13.429688 3.699219 13.414062 3.710938 13.398438 3.71875 C 13.382812 3.722656 13.363281 3.726562 13.347656 3.722656 C 13.328125 3.71875 13.3125 3.710938 13.300781 3.695312 C 13.289062 3.683594 13.28125 3.667969 13.277344 3.652344 C 13.273438 3.632812 13.273438 3.617188 13.28125 3.601562 C 13.289062 3.585938 13.300781 3.570312 13.316406 3.5625 C 13.328125 3.550781 13.347656 3.546875 13.363281 3.546875 C 13.386719 3.546875 13.410156 3.554688 13.425781 3.570312 C 13.445312 3.589844 13.453125 3.609375 13.453125 3.632812 Z M 13.453125 3.632812 " fill-opacity="0.2" fill-rule="nonzero"/><g clip-path="url(#id8)"><path fill="rgb(0%, 0%, 0%)" d="M 13.453125 5.074219 C 13.453125 5.09375 13.449219 5.109375 13.4375 5.125 C 13.429688 5.140625 13.414062 5.152344 13.398438 5.15625 C 13.382812 5.164062 13.363281 5.167969 13.347656 5.164062 C 13.328125 5.160156 13.3125 5.152344 13.300781 5.136719 C 13.289062 5.125 13.28125 5.109375 13.277344 5.09375 C 13.273438 5.074219 13.273438 5.058594 13.28125 5.042969 C 13.289062 5.027344 13.300781 5.011719 13.316406 5.003906 C 13.328125 4.992188 13.347656 4.988281 13.363281 4.988281 C 13.386719 4.988281 13.410156 4.996094 13.425781 5.011719 C 13.445312 5.03125 13.453125 5.050781 13.453125 5.074219 Z M 13.453125 5.074219 " fill-opacity="0.2" fill-rule="nonzero"/></g></g></g></g><path fill="rgb(14.898682%, 19.60907%, 21.958923%)" d="M 145.808594 95.710938 L 145.09375 95.710938 L 145.09375 102.035156 L 145.808594 102.035156 Z M 145.808594 95.710938 " fill-opacity="1" fill-rule="nonzero"/><path fill="rgb(14.898682%, 19.60907%, 21.958923%)" d="M 158.75 95.710938 L 158.035156 95.710938 L 158.035156 102.035156 L 158.75 102.035156 Z M 158.75 95.710938 " fill-opacity="1" fill-rule="nonzero"/><path fill="rgb(100%, 78.039551%, 15.289307%)" d="M 160.621094 96.289062 L 143.222656 96.289062 L 143.222656 97.222656 L 160.621094 97.222656 Z M 160.621094 96.289062 " fill-opacity="1" fill-rule="nonzero"/><path fill="rgb(0%, 0%, 0%)" d="M 160.621094 96.289062 L 143.222656 96.289062 L 143.222656 97.222656 L 160.621094 97.222656 Z M 160.621094 96.289062 " fill-opacity="0.2" fill-rule="nonzero"/><path fill="rgb(100%, 78.039551%, 15.289307%)" d="M 160.621094 97.726562 L 143.222656 97.726562 L 143.222656 98.660156 L 160.621094 98.660156 Z M 160.621094 97.726562 " fill-opacity="1" fill-rule="nonzero"/><path fill="rgb(0%, 0%, 0%)" d="M 160.621094 97.726562 L 143.222656 97.726562 L 143.222656 98.660156 L 160.621094 98.660156 Z M 160.621094 97.726562 " fill-opacity="0.2" fill-rule="nonzero"/><path fill="rgb(100%, 78.039551%, 15.289307%)" d="M 160.621094 99.167969 L 143.222656 99.167969 L 143.222656 100.101562 L 160.621094 100.101562 Z M 160.621094 99.167969 " fill-opacity="1" fill-rule="nonzero"/><path fill="rgb(0%, 0%, 0%)" d="M 160.621094 99.167969 L 143.222656 99.167969 L 143.222656 100.101562 L 160.621094 100.101562 Z M 160.621094 99.167969 " fill-opacity="0.2" fill-rule="nonzero"/><path fill="rgb(100%, 78.039551%, 15.289307%)" d="M 160.621094 100.609375 L 143.222656 100.609375 L 143.222656 101.542969 L 160.621094 101.542969 Z M 160.621094 100.609375 " fill-opacity="1" fill-rule="nonzero"/><path fill="rgb(0%, 0%, 0%)" d="M 160.621094 100.609375 L 143.222656 100.609375 L 143.222656 101.542969 L 160.621094 101.542969 Z M 160.621094 100.609375 " fill-opacity="0.2" fill-rule="nonzero"/><path fill="rgb(100%, 78.039551%, 15.289307%)" d="M 162.398438 102.035156 L 141.691406 102.035156 L 141.691406 103.429688 L 162.398438 103.429688 Z M 162.398438 102.035156 " fill-opacity="1" fill-rule="nonzero"/><path fill="rgb(0%, 0%, 0%)" d="M 162.398438 102.035156 L 141.691406 102.035156 L 141.691406 103.429688 L 162.398438 103.429688 Z M 162.398438 102.035156 " fill-opacity="0.2" fill-rule="nonzero"/><path fill="rgb(14.898682%, 19.60907%, 21.958923%)" d="M 143.566406 103.429688 L 142.851562 103.429688 L 142.851562 108.136719 L 143.566406 108.136719 Z M 143.566406 103.429688 " fill-opacity="1" fill-rule="nonzero"/><path fill="rgb(14.898682%, 19.60907%, 21.958923%)" d="M 161.242188 103.429688 L 160.527344 103.429688 L 160.527344 108.136719 L 161.242188 108.136719 Z M 161.242188 103.429688 " fill-opacity="1" fill-rule="nonzero"/><g mask="url(#id10)"><g transform="matrix(1, 0, 0, 1, 144, 96)"><g clip-path="url(#id15)"><g clip-path="url(#id11)"><path fill="rgb(0%, 0%, 0%)" d="M 1.539062 0.753906 C 1.539062 0.773438 1.53125 0.789062 1.523438 0.804688 C 1.511719 0.820312 1.5 0.832031 1.484375 0.835938 C 1.46875 0.84375 1.449219 0.847656 1.433594 0.84375 C 1.414062 0.839844 1.398438 0.832031 1.386719 0.816406 C 1.375 0.804688 1.367188 0.789062 1.363281 0.773438 C 1.359375 0.753906 1.359375 0.738281 1.367188 0.722656 C 1.375 0.707031 1.386719 0.691406 1.398438 0.683594 C 1.414062 0.671875 1.433594 0.667969 1.449219 0.667969 C 1.472656 0.667969 1.496094 0.675781 1.511719 0.691406 C 1.527344 0.710938 1.539062 0.730469 1.539062 0.753906 Z M 1.539062 0.753906 " fill-opacity="0.2" fill-rule="nonzero"/></g><path fill="rgb(0%, 0%, 0%)" d="M 1.539062 2.195312 C 1.539062 2.210938 1.535156 2.226562 1.523438 2.242188 C 1.515625 2.257812 1.5 2.269531 1.484375 2.277344 C 1.46875 2.285156 1.453125 2.289062 1.433594 2.285156 C 1.417969 2.28125 1.402344 2.273438 1.386719 2.261719 C 1.375 2.25 1.367188 2.234375 1.363281 2.214844 C 1.359375 2.199219 1.359375 2.179688 1.367188 2.164062 C 1.375 2.148438 1.386719 2.132812 1.398438 2.125 C 1.414062 2.113281 1.429688 2.109375 1.449219 2.109375 C 1.472656 2.109375 1.496094 2.117188 1.511719 2.132812 C 1.527344 2.148438 1.539062 2.171875 1.539062 2.195312 Z M 1.539062 2.195312 " fill-opacity="0.2" fill-rule="nonzero"/><path fill="rgb(0%, 0%, 0%)" d="M 1.539062 3.632812 C 1.539062 3.652344 1.53125 3.667969 1.523438 3.683594 C 1.511719 3.699219 1.5 3.710938 1.484375 3.71875 C 1.46875 3.722656 1.449219 3.726562 1.433594 3.722656 C 1.414062 3.71875 1.398438 3.710938 1.386719 3.695312 C 1.375 3.683594 1.367188 3.667969 1.363281 3.652344 C 1.359375 3.632812 1.359375 3.617188 1.367188 3.601562 C 1.375 3.585938 1.386719 3.570312 1.398438 3.5625 C 1.414062 3.550781 1.433594 3.546875 1.449219 3.546875 C 1.472656 3.546875 1.496094 3.554688 1.511719 3.570312 C 1.527344 3.589844 1.539062 3.609375 1.539062 3.632812 Z M 1.539062 3.632812 " fill-opacity="0.2" fill-rule="nonzero"/><g clip-path="url(#id12)"><path fill="rgb(0%, 0%, 0%)" d="M 1.539062 5.074219 C 1.539062 5.09375 1.53125 5.109375 1.523438 5.125 C 1.511719 5.140625 1.5 5.152344 1.484375 5.15625 C 1.46875 5.164062 1.449219 5.167969 1.433594 5.164062 C 1.414062 5.160156 1.398438 5.152344 1.386719 5.136719 C 1.375 5.125 1.367188 5.109375 1.363281 5.09375 C 1.359375 5.074219 1.359375 5.058594 1.367188 5.042969 C 1.375 5.027344 1.386719 5.011719 1.398438 5.003906 C 1.414062 4.992188 1.433594 4.988281 1.449219 4.988281 C 1.472656 4.988281 1.496094 4.996094 1.511719 5.011719 C 1.527344 5.03125 1.539062 5.050781 1.539062 5.074219 Z M 1.539062 5.074219 " fill-opacity="0.2" fill-rule="nonzero"/></g><g clip-path="url(#id13)"><path fill="rgb(0%, 0%, 0%)" d="M 14.484375 0.753906 C 14.484375 0.773438 14.476562 0.789062 14.46875 0.804688 C 14.460938 0.820312 14.445312 0.832031 14.429688 0.835938 C 14.414062 0.84375 14.394531 0.847656 14.378906 0.84375 C 14.359375 0.839844 14.34375 0.832031 14.332031 0.816406 C 14.320312 0.804688 14.3125 0.789062 14.308594 0.773438 C 14.304688 0.753906 14.304688 0.738281 14.3125 0.722656 C 14.320312 0.707031 14.332031 0.691406 14.34375 0.683594 C 14.359375 0.671875 14.378906 0.667969 14.394531 0.667969 C 14.417969 0.667969 14.441406 0.675781 14.457031 0.691406 C 14.472656 0.710938 14.484375 0.730469 14.484375 0.753906 Z M 14.484375 0.753906 " fill-opacity="0.2" fill-rule="nonzero"/></g><path fill="rgb(0%, 0%, 0%)" d="M 14.484375 2.195312 C 14.484375 2.210938 14.480469 2.226562 14.46875 2.242188 C 14.460938 2.257812 14.449219 2.269531 14.429688 2.277344 C 14.414062 2.285156 14.398438 2.289062 14.378906 2.285156 C 14.363281 2.28125 14.347656 2.273438 14.332031 2.261719 C 14.320312 2.25 14.3125 2.234375 14.308594 2.214844 C 14.304688 2.199219 14.304688 2.179688 14.3125 2.164062 C 14.320312 2.148438 14.332031 2.132812 14.34375 2.125 C 14.359375 2.113281 14.378906 2.109375 14.394531 2.109375 C 14.417969 2.109375 14.441406 2.117188 14.457031 2.132812 C 14.472656 2.148438 14.484375 2.171875 14.484375 2.195312 Z M 14.484375 2.195312 " fill-opacity="0.2" fill-rule="nonzero"/><path fill="rgb(0%, 0%, 0%)" d="M 14.484375 3.632812 C 14.484375 3.652344 14.476562 3.667969 14.46875 3.683594 C 14.460938 3.699219 14.445312 3.710938 14.429688 3.71875 C 14.414062 3.722656 14.394531 3.726562 14.378906 3.722656 C 14.359375 3.71875 14.34375 3.710938 14.332031 3.695312 C 14.320312 3.683594 14.3125 3.667969 14.308594 3.652344 C 14.304688 3.632812 14.304688 3.617188 14.3125 3.601562 C 14.320312 3.585938 14.332031 3.570312 14.34375 3.5625 C 14.359375 3.550781 14.378906 3.546875 14.394531 3.546875 C 14.417969 3.546875 14.441406 3.554688 14.457031 3.570312 C 14.472656 3.589844 14.484375 3.609375 14.484375 3.632812 Z M 14.484375 3.632812 " fill-opacity="0.2" fill-rule="nonzero"/><g clip-path="url(#id14)"><path fill="rgb(0%, 0%, 0%)" d="M 14.484375 5.074219 C 14.484375 5.09375 14.476562 5.109375 14.46875 5.125 C 14.460938 5.140625 14.445312 5.152344 14.429688 5.15625 C 14.414062 5.164062 14.394531 5.167969 14.378906 5.164062 C 14.359375 5.160156 14.34375 5.152344 14.332031 5.136719 C 14.320312 5.125 14.3125 5.109375 14.308594 5.09375 C 14.304688 5.074219 14.304688 5.058594 14.3125 5.042969 C 14.320312 5.027344 14.332031 5.011719 14.34375 5.003906 C 14.359375 4.992188 14.378906 4.988281 14.394531 4.988281 C 14.417969 4.988281 14.441406 4.996094 14.457031 5.011719 C 14.472656 5.03125 14.484375 5.050781 14.484375 5.074219 Z M 14.484375 5.074219 " fill-opacity="0.2" fill-rule="nonzero"/></g></g></g></g><path fill="rgb(92.158508%, 58.039856%, 50.588989%)" d="M 131.027344 133.324219 C 130.320312 133.554688 109.382812 133.292969 108.621094 132.792969 C 108.328125 132.609375 109.796875 112.910156 109.796875 112.910156 L 123.328125 113.046875 L 121.886719 126.222656 C 121.886719 126.222656 129.585938 129.789062 130.363281 130.421875 C 131.144531 131.058594 131.738281 133.097656 131.027344 133.324219 Z M 131.027344 133.324219 " fill-opacity="1" fill-rule="nonzero"/><path fill="rgb(100%, 100%, 100%)" d="M 131.027344 133.324219 C 130.320312 133.554688 109.382812 133.292969 108.617188 132.792969 C 108.484375 132.710938 108.722656 128.480469 109.019531 123.945312 L 122.136719 123.945312 L 121.886719 126.222656 C 121.886719 126.222656 129.582031 129.785156 130.367188 130.421875 C 131.148438 131.0625 131.738281 133.097656 131.027344 133.324219 Z M 131.027344 133.324219 " fill-opacity="1" fill-rule="nonzero"/><path fill="rgb(100%, 78.039551%, 15.289307%)" d="M 131.277344 133.609375 C 130.527344 133.859375 109.390625 133.65625 108.570312 133.132812 C 108.242188 132.941406 108.703125 125.96875 108.703125 125.929688 L 121.785156 125.929688 L 121.785156 126.160156 C 121.785156 126.160156 129.914062 129.890625 130.738281 130.558594 C 131.566406 131.226562 132.007812 133.371094 131.277344 133.609375 Z M 131.277344 133.609375 " fill-opacity="1" fill-rule="nonzero"/><path fill="rgb(14.898682%, 19.60907%, 21.958923%)" d="M 131.203125 132.785156 C 127.609375 132.664062 113.105469 132.507812 109.546875 132.664062 C 109.519531 132.664062 109.519531 132.683594 109.546875 132.6875 C 113.105469 132.882812 127.609375 132.917969 131.203125 132.839844 C 131.277344 132.839844 131.277344 132.785156 131.203125 132.785156 Z M 131.203125 132.785156 " fill-opacity="1" fill-rule="nonzero"/><path fill="rgb(14.898682%, 19.60907%, 21.958923%)" d="M 123.074219 126.339844 C 121.664062 126.0625 119.929688 126.261719 118.839844 127.261719 C 118.796875 127.300781 118.839844 127.359375 118.898438 127.347656 C 120.253906 126.921875 121.652344 126.644531 123.066406 126.519531 C 123.085938 126.519531 123.105469 126.507812 123.121094 126.492188 C 123.136719 126.476562 123.144531 126.457031 123.144531 126.433594 C 123.148438 126.414062 123.140625 126.390625 123.128906 126.375 C 123.113281 126.355469 123.097656 126.34375 123.074219 126.339844 Z M 123.074219 126.339844 " fill-opacity="1" fill-rule="nonzero"/><path fill="rgb(14.898682%, 19.60907%, 21.958923%)" d="M 124.089844 126.980469 C 122.675781 126.703125 120.945312 126.90625 119.855469 127.902344 C 119.8125 127.941406 119.855469 128 119.914062 127.988281 C 121.269531 127.5625 122.667969 127.285156 124.082031 127.160156 C 124.105469 127.160156 124.128906 127.152344 124.144531 127.136719 C 124.164062 127.117188 124.171875 127.097656 124.175781 127.074219 C 124.175781 127.050781 124.167969 127.027344 124.148438 127.007812 C 124.132812 126.992188 124.113281 126.980469 124.089844 126.980469 Z M 124.089844 126.980469 " fill-opacity="1" fill-rule="nonzero"/><path fill="rgb(14.898682%, 19.60907%, 21.958923%)" d="M 125.101562 127.589844 C 123.691406 127.3125 121.960938 127.515625 120.871094 128.511719 C 120.828125 128.550781 120.871094 128.609375 120.929688 128.59375 C 122.285156 128.171875 123.683594 127.894531 125.097656 127.765625 C 125.121094 127.769531 125.144531 127.757812 125.160156 127.742188 C 125.175781 127.726562 125.1875 127.707031 125.1875 127.683594 C 125.1875 127.65625 125.179688 127.636719 125.164062 127.617188 C 125.148438 127.601562 125.125 127.589844 125.101562 127.589844 Z M 125.101562 127.589844 " fill-opacity="1" fill-rule="nonzero"/><path fill="rgb(14.898682%, 19.60907%, 21.958923%)" d="M 128.515625 129.429688 C 128.097656 129.417969 127.679688 129.492188 127.292969 129.648438 C 126.90625 129.804688 126.554688 130.042969 126.261719 130.339844 C 125.734375 130.878906 125.433594 131.59375 125.414062 132.347656 C 125.414062 132.371094 125.457031 132.371094 125.460938 132.347656 C 125.589844 131.601562 125.957031 130.921875 126.507812 130.402344 C 127.058594 129.886719 127.761719 129.5625 128.515625 129.476562 C 128.519531 129.476562 128.523438 129.472656 128.527344 129.46875 C 128.53125 129.464844 128.53125 129.460938 128.53125 129.453125 C 128.53125 129.449219 128.53125 129.441406 128.527344 129.4375 C 128.523438 129.433594 128.519531 129.429688 128.515625 129.429688 Z M 128.515625 129.429688 " fill-opacity="1" fill-rule="nonzero"/><path fill="rgb(100%, 100%, 100%)" d="M 110.933594 129.285156 C 109.246094 129.285156 109.242188 131.917969 110.933594 131.917969 C 112.625 131.917969 112.625 129.285156 110.933594 129.285156 Z M 110.933594 129.285156 " fill-opacity="1" fill-rule="nonzero"/><path fill="rgb(27.059937%, 35.289001%, 39.219666%)" d="M 123.253906 125.664062 L 108.6875 125.664062 C 108.6875 125.664062 111.164062 89.976562 111.082031 89.523438 C 110.933594 88.761719 107.097656 69.390625 106.054688 65.367188 C 104.488281 59.335938 103.269531 54.652344 103.269531 54.652344 L 115.613281 54.652344 C 115.613281 54.652344 117.054688 59.210938 118.867188 65.144531 C 121.828125 74.789062 124.132812 88.058594 124.511719 91.285156 C 124.988281 95.195312 123.253906 125.664062 123.253906 125.664062 Z M 123.253906 125.664062 " fill-opacity="1" fill-rule="nonzero"/><path fill="rgb(14.898682%, 19.60907%, 21.958923%)" d="M 122.578125 123.011719 C 120.355469 122.964844 120.996094 122.945312 118.773438 122.925781 C 117.6875 122.925781 110.546875 122.855469 109.527344 123.023438 C 109.507812 123.023438 109.507812 123.0625 109.527344 123.066406 C 110.542969 123.234375 117.6875 123.175781 118.773438 123.160156 C 120.996094 123.140625 120.355469 123.121094 122.578125 123.074219 C 122.582031 123.078125 122.589844 123.078125 122.59375 123.078125 C 122.597656 123.074219 122.605469 123.074219 122.609375 123.070312 C 122.613281 123.066406 122.617188 123.0625 122.617188 123.058594 C 122.621094 123.054688 122.621094 123.050781 122.621094 123.042969 C 122.621094 123.039062 122.621094 123.035156 122.617188 123.027344 C 122.617188 123.023438 122.613281 123.019531 122.609375 123.015625 C 122.605469 123.015625 122.597656 123.011719 122.59375 123.011719 C 122.589844 123.011719 122.582031 123.011719 122.578125 123.011719 Z M 122.578125 123.011719 " fill-opacity="1" fill-rule="nonzero"/><path fill="rgb(14.898682%, 19.60907%, 21.958923%)" d="M 105.511719 56.332031 L 107.472656 64.492188 C 107.472656 64.492188 111.902344 85.636719 112.554688 88.324219 C 112.714844 89 112.882812 89.671875 113.003906 90.355469 C 113.042969 90.523438 113.066406 90.703125 113.09375 90.871094 C 113.09375 90.96875 113.109375 91.074219 113.109375 91.164062 L 113.089844 91.421875 L 111.066406 121.78125 L 110.9375 121.910156 L 112.789062 91.398438 L 112.808594 91.140625 C 112.808594 91.058594 112.808594 90.992188 112.808594 90.914062 C 112.777344 90.746094 112.753906 90.585938 112.71875 90.410156 C 112.570312 89.742188 105.511719 56.332031 105.511719 56.332031 Z M 105.511719 56.332031 " fill-opacity="1" fill-rule="nonzero"/><path fill="rgb(14.898682%, 19.60907%, 21.958923%)" d="M 115.183594 54.65625 L 110.480469 86.507812 C 109.328125 80.734375 106.863281 68.476562 106.054688 65.367188 C 104.488281 59.335938 103.269531 54.65625 103.269531 54.65625 Z M 115.183594 54.65625 " fill-opacity="1" fill-rule="nonzero"/><path fill="rgb(92.158508%, 58.039856%, 50.588989%)" d="M 87.210938 133.234375 C 87.921875 133.457031 105.507812 133.535156 106.273438 133.023438 C 106.566406 132.835938 106.667969 129.871094 106.691406 126.285156 L 106.691406 126.171875 C 106.691406 125.433594 108.394531 113.011719 108.394531 113.011719 L 95.109375 113.28125 L 93.574219 126.324219 L 93.574219 126.546875 C 93.574219 126.546875 88.609375 129.65625 87.832031 130.304688 C 87.050781 130.953125 86.492188 133 87.210938 133.234375 Z M 87.210938 133.234375 " fill-opacity="1" fill-rule="nonzero"/><path fill="rgb(100%, 100%, 100%)" d="M 106.925781 123.945312 C 106.777344 125.136719 106.675781 125.984375 106.675781 126.160156 L 106.675781 126.273438 C 106.652344 129.859375 106.550781 132.820312 106.257812 133.011719 C 105.496094 133.523438 87.910156 133.441406 87.191406 133.222656 C 86.476562 133.003906 87.058594 130.941406 87.832031 130.296875 C 88.605469 129.652344 93.570312 126.539062 93.570312 126.539062 L 93.570312 126.316406 L 93.851562 123.945312 Z M 106.925781 123.945312 " fill-opacity="1" fill-rule="nonzero"/><path fill="rgb(100%, 78.039551%, 15.289307%)" d="M 86.339844 133.609375 C 87.089844 133.859375 106 133.65625 106.804688 133.132812 C 107.117188 132.941406 106.667969 125.96875 106.671875 125.929688 L 93.589844 125.929688 L 93.589844 126.160156 C 93.589844 126.160156 87.695312 129.890625 86.867188 130.558594 C 86.042969 131.226562 85.59375 133.371094 86.339844 133.609375 Z M 86.339844 133.609375 " fill-opacity="1" fill-rule="nonzero"/><path fill="rgb(14.898682%, 19.60907%, 21.958923%)" d="M 86.398438 132.785156 C 89.992188 132.664062 102.265625 132.507812 105.8125 132.664062 C 105.84375 132.664062 105.84375 132.683594 105.8125 132.6875 C 102.25 132.882812 89.976562 132.917969 86.398438 132.839844 C 86.320312 132.839844 86.320312 132.785156 86.398438 132.785156 Z M 86.398438 132.785156 " fill-opacity="1" fill-rule="nonzero"/><path fill="rgb(14.898682%, 19.60907%, 21.958923%)" d="M 94.652344 126.367188 C 96.441406 125.875 98.675781 125.878906 100.128906 126.863281 C 100.183594 126.898438 100.128906 126.972656 100.054688 126.964844 C 98.277344 126.660156 96.476562 126.527344 94.671875 126.570312 C 94.539062 126.574219 94.523438 126.40625 94.652344 126.367188 Z M 94.652344 126.367188 " fill-opacity="1" fill-rule="nonzero"/><path fill="rgb(14.898682%, 19.60907%, 21.958923%)" d="M 93.390625 127.203125 C 95.179688 126.710938 97.410156 126.714844 98.867188 127.699219 C 98.921875 127.734375 98.867188 127.808594 98.792969 127.800781 C 97.015625 127.496094 95.214844 127.363281 93.410156 127.40625 C 93.386719 127.402344 93.363281 127.394531 93.34375 127.378906 C 93.328125 127.359375 93.316406 127.335938 93.3125 127.3125 C 93.3125 127.289062 93.316406 127.265625 93.332031 127.246094 C 93.347656 127.226562 93.367188 127.210938 93.390625 127.203125 Z M 93.390625 127.203125 " fill-opacity="1" fill-rule="nonzero"/><path fill="rgb(14.898682%, 19.60907%, 21.958923%)" d="M 92.117188 128.039062 C 93.90625 127.546875 96.136719 127.546875 97.59375 128.535156 C 97.648438 128.570312 97.59375 128.644531 97.519531 128.636719 C 95.742188 128.332031 93.9375 128.199219 92.136719 128.242188 C 92.113281 128.238281 92.089844 128.230469 92.070312 128.210938 C 92.054688 128.195312 92.042969 128.171875 92.039062 128.148438 C 92.039062 128.125 92.042969 128.101562 92.058594 128.082031 C 92.070312 128.0625 92.09375 128.046875 92.117188 128.039062 Z M 92.117188 128.039062 " fill-opacity="1" fill-rule="nonzero"/><path fill="rgb(14.898682%, 19.60907%, 21.958923%)" d="M 88.007812 130.269531 C 88.609375 129.953125 89.273438 129.765625 89.953125 129.71875 C 90.632812 129.671875 91.316406 129.769531 91.953125 130 C 93 130.410156 94.09375 131.167969 94.613281 132.320312 C 94.613281 132.355469 94.566406 132.382812 94.546875 132.355469 C 93.183594 130.378906 90.308594 129.441406 88.058594 130.339844 C 87.996094 130.363281 87.964844 130.300781 88.007812 130.269531 Z M 88.007812 130.269531 " fill-opacity="1" fill-rule="nonzero"/><path fill="rgb(100%, 100%, 100%)" d="M 105.507812 128.597656 C 106.824219 128.597656 106.824219 131.230469 105.507812 131.230469 C 104.191406 131.230469 104.179688 128.597656 105.507812 128.597656 Z M 105.507812 128.597656 " fill-opacity="1" fill-rule="nonzero"/><path fill="rgb(27.059937%, 35.289001%, 39.219666%)" d="M 115.316406 54.65625 C 115.316406 54.65625 113.695312 66.035156 113.566406 66.40625 C 113.566406 66.40625 112.621094 66.761719 111.367188 67.339844 L 107.890625 125.609375 L 93.257812 125.667969 L 99.355469 54.65625 Z M 115.316406 54.65625 " fill-opacity="1" fill-rule="nonzero"/><path fill="rgb(14.898682%, 19.60907%, 21.958923%)" d="M 107.390625 123.003906 C 105.15625 122.964844 105.800781 122.945312 103.5625 122.933594 C 102.46875 122.933594 95.277344 122.898438 94.253906 123.070312 C 94.230469 123.070312 94.230469 123.113281 94.253906 123.113281 C 95.277344 123.277344 102.480469 123.1875 103.5625 123.171875 C 105.800781 123.140625 105.15625 123.125 107.390625 123.070312 C 107.402344 123.070312 107.410156 123.066406 107.414062 123.058594 C 107.421875 123.054688 107.425781 123.042969 107.425781 123.035156 C 107.425781 123.027344 107.421875 123.019531 107.414062 123.011719 C 107.410156 123.007812 107.402344 123.003906 107.390625 123.003906 Z M 107.390625 123.003906 " fill-opacity="1" fill-rule="nonzero"/><path fill="rgb(14.898682%, 19.60907%, 21.958923%)" d="M 113.816406 66.316406 C 112.4375 66.816406 111.105469 67.4375 109.832031 68.171875 C 109.824219 68.179688 109.816406 68.1875 109.816406 68.199219 C 109.8125 68.210938 109.8125 68.21875 109.816406 68.230469 C 109.824219 68.242188 109.832031 68.25 109.839844 68.253906 C 109.851562 68.257812 109.863281 68.257812 109.875 68.253906 C 111.210938 67.679688 112.582031 67.125 113.886719 66.476562 C 113.90625 66.464844 113.921875 66.449219 113.929688 66.429688 C 113.933594 66.40625 113.933594 66.382812 113.925781 66.363281 C 113.914062 66.34375 113.898438 66.328125 113.878906 66.320312 C 113.859375 66.308594 113.835938 66.308594 113.816406 66.316406 Z M 113.816406 66.316406 " fill-opacity="1" fill-rule="nonzero"/><path fill="rgb(14.898682%, 19.60907%, 21.958923%)" d="M 114.238281 57.117188 C 114.238281 57.070312 114.15625 57.0625 114.15625 57.117188 C 114.15625 58.613281 114.082031 60.109375 113.929688 61.597656 C 113.867188 62.289062 113.316406 66.105469 112.117188 65.828125 C 111.917969 65.78125 111.816406 65.582031 111.789062 65.28125 C 111.792969 64.882812 111.847656 64.492188 111.945312 64.109375 C 112.082031 63.3125 112.1875 62.507812 112.253906 61.703125 C 112.394531 60.199219 112.378906 58.6875 112.207031 57.1875 C 112.203125 57.179688 112.199219 57.171875 112.191406 57.167969 C 112.183594 57.164062 112.175781 57.160156 112.167969 57.160156 C 112.160156 57.160156 112.152344 57.164062 112.144531 57.167969 C 112.136719 57.171875 112.132812 57.179688 112.128906 57.1875 C 112.164062 59.273438 112.042969 61.355469 111.765625 63.421875 C 111.613281 64.40625 111.105469 65.910156 112.152344 66.054688 C 113.199219 66.199219 113.894531 63.707031 114.027344 63.023438 C 114.351562 61.070312 114.421875 59.085938 114.238281 57.117188 Z M 114.238281 57.117188 " fill-opacity="1" fill-rule="nonzero"/><path fill="rgb(14.898682%, 19.60907%, 21.958923%)" d="M 112.148438 65.921875 C 112.039062 66.179688 111.949219 66.445312 111.878906 66.714844 C 111.800781 66.925781 111.761719 67.148438 111.765625 67.371094 C 111.765625 67.382812 111.773438 67.390625 111.777344 67.394531 C 111.785156 67.402344 111.792969 67.40625 111.800781 67.410156 C 111.8125 67.410156 111.820312 67.410156 111.828125 67.40625 C 111.835938 67.402344 111.84375 67.398438 111.851562 67.390625 C 111.972656 67.195312 112.066406 66.980469 112.128906 66.757812 C 112.21875 66.515625 112.316406 66.269531 112.398438 66.023438 C 112.40625 66.007812 112.410156 65.988281 112.410156 65.972656 C 112.410156 65.953125 112.40625 65.933594 112.398438 65.917969 C 112.390625 65.902344 112.382812 65.886719 112.371094 65.875 C 112.355469 65.863281 112.339844 65.851562 112.324219 65.847656 C 112.308594 65.839844 112.289062 65.835938 112.273438 65.835938 C 112.253906 65.835938 112.238281 65.839844 112.21875 65.847656 C 112.203125 65.855469 112.1875 65.863281 112.175781 65.875 C 112.164062 65.890625 112.152344 65.90625 112.148438 65.921875 Z M 112.148438 65.921875 " fill-opacity="1" fill-rule="nonzero"/><path fill="rgb(14.898682%, 19.60907%, 21.958923%)" d="M 111.066406 68.800781 L 110.285156 75.496094 L 109.464844 82.1875 L 106.542969 121.675781 L 106.363281 121.675781 L 109.226562 82.15625 L 110.132812 75.476562 Z M 111.066406 68.800781 " fill-opacity="1" fill-rule="nonzero"/><path fill="rgb(14.898682%, 19.60907%, 21.958923%)" d="M 100.277344 64.636719 C 101.40625 64.519531 102.582031 64.535156 103.621094 64.03125 C 104.660156 63.523438 105.363281 62.507812 105.921875 61.488281 C 106.257812 60.859375 106.511719 60.191406 106.675781 59.5 C 106.675781 59.464844 106.730469 59.476562 106.730469 59.5 C 106.6875 60.148438 106.53125 60.78125 106.269531 61.378906 C 106.03125 61.964844 105.730469 62.523438 105.367188 63.042969 C 105.03125 63.539062 104.59375 63.949219 104.078125 64.253906 C 103.550781 64.535156 102.972656 64.710938 102.378906 64.765625 C 101.683594 64.84375 100.980469 64.84375 100.285156 64.765625 C 100.277344 64.765625 100.269531 64.765625 100.261719 64.761719 C 100.253906 64.761719 100.246094 64.757812 100.238281 64.75 C 100.234375 64.746094 100.226562 64.738281 100.222656 64.730469 C 100.21875 64.722656 100.214844 64.714844 100.214844 64.707031 C 100.214844 64.695312 100.214844 64.6875 100.21875 64.679688 C 100.222656 64.671875 100.226562 64.664062 100.230469 64.65625 C 100.238281 64.652344 100.246094 64.644531 100.253906 64.640625 C 100.257812 64.636719 100.269531 64.636719 100.277344 64.636719 Z M 100.277344 64.636719 " fill-opacity="1" fill-rule="nonzero"/><path fill="rgb(14.898682%, 19.60907%, 21.958923%)" d="M 129.566406 56.71875 C 129.894531 57.9375 130.34375 59.132812 130.753906 60.335938 C 131.160156 61.542969 131.570312 62.742188 131.949219 63.957031 C 132.339844 65.171875 132.652344 66.410156 132.886719 67.664062 C 132.980469 68.296875 133.019531 68.9375 133.003906 69.582031 C 133.003906 70.214844 132.980469 70.855469 132.949219 71.488281 C 132.808594 74.035156 132.457031 76.554688 132.144531 79.078125 C 131.988281 80.335938 131.832031 81.597656 131.710938 82.855469 C 131.578125 84.113281 131.523438 85.378906 131.550781 86.640625 C 131.628906 89.160156 132.632812 91.558594 133.90625 93.726562 C 135.179688 95.894531 136.757812 97.90625 138.210938 99.996094 C 138.960938 101.027344 139.621094 102.125 140.183594 103.269531 C 140.460938 103.851562 140.664062 104.464844 140.789062 105.09375 C 140.921875 105.71875 141.039062 106.34375 141.117188 106.976562 C 141.480469 109.492188 141.644531 112.035156 141.609375 114.578125 C 141.585938 112.042969 141.367188 109.511719 140.949219 107.011719 C 140.71875 105.769531 140.542969 104.496094 139.964844 103.371094 C 139.390625 102.246094 138.722656 101.167969 137.964844 100.15625 C 136.484375 98.097656 134.910156 96.089844 133.609375 93.902344 C 132.945312 92.808594 132.386719 91.648438 131.945312 90.449219 C 131.5 89.238281 131.242188 87.96875 131.179688 86.679688 C 131.15625 85.402344 131.214844 84.125 131.359375 82.855469 C 131.488281 81.585938 131.644531 80.328125 131.808594 79.066406 C 132.136719 76.546875 132.46875 74.027344 132.65625 71.5 C 132.699219 70.867188 132.722656 70.230469 132.734375 69.601562 C 132.757812 68.972656 132.726562 68.339844 132.640625 67.71875 C 132.425781 66.46875 132.128906 65.238281 131.757812 64.027344 C 131.40625 62.804688 131.023438 61.59375 130.632812 60.386719 C 130.246094 59.179688 129.878906 57.949219 129.566406 56.71875 Z M 129.566406 56.71875 " fill-opacity="1" fill-rule="nonzero"/><path fill="rgb(100%, 78.039551%, 15.289307%)" d="M 72.152344 125.988281 L 69.90625 128.757812 L 70.890625 129.554688 L 73.136719 126.785156 Z M 72.152344 125.988281 " fill-opacity="1" fill-rule="nonzero"/><path fill="rgb(14.898682%, 19.60907%, 21.958923%)" d="M 80.667969 144.632812 C 85.988281 144.632812 90.304688 140.320312 90.304688 135 C 90.304688 129.679688 85.988281 125.367188 80.667969 125.367188 C 75.347656 125.367188 71.03125 129.679688 71.03125 135 C 71.03125 140.320312 75.347656 144.632812 80.667969 144.632812 Z M 80.667969 144.632812 " fill-opacity="1" fill-rule="nonzero"/><path fill="rgb(27.059937%, 35.289001%, 39.219666%)" d="M 80.667969 142.050781 C 84.5625 142.050781 87.71875 138.894531 87.71875 135 C 87.71875 131.105469 84.5625 127.949219 80.667969 127.949219 C 76.773438 127.949219 73.617188 131.105469 73.617188 135 C 73.617188 138.894531 76.773438 142.050781 80.667969 142.050781 Z M 80.667969 142.050781 " fill-opacity="1" fill-rule="nonzero"/><path fill="rgb(27.059937%, 35.289001%, 39.219666%)" d="M 70.773438 135.132812 L 69.457031 135.132812 C 69.457031 128.710938 74.304688 123.871094 80.738281 123.871094 C 84.953125 123.871094 88.238281 125.863281 90.5 129.792969 L 89.359375 130.453125 C 87.351562 126.964844 84.449219 125.1875 80.738281 125.1875 C 74.964844 125.1875 70.773438 129.371094 70.773438 135.132812 Z M 70.773438 135.132812 " fill-opacity="1" fill-rule="nonzero"/><path fill="rgb(14.898682%, 19.60907%, 21.958923%)" d="M 146.148438 144.632812 C 151.46875 144.632812 155.78125 140.320312 155.78125 135 C 155.78125 129.679688 151.46875 125.367188 146.148438 125.367188 C 140.824219 125.367188 136.511719 129.679688 136.511719 135 C 136.511719 140.320312 140.824219 144.632812 146.148438 144.632812 Z M 146.148438 144.632812 " fill-opacity="1" fill-rule="nonzero"/><path fill="rgb(27.059937%, 35.289001%, 39.219666%)" d="M 146.148438 142.050781 C 150.042969 142.050781 153.199219 138.894531 153.199219 135 C 153.199219 131.105469 150.042969 127.949219 146.148438 127.949219 C 142.25 127.949219 139.09375 131.105469 139.09375 135 C 139.09375 138.894531 142.25 142.050781 146.148438 142.050781 Z M 146.148438 142.050781 " fill-opacity="1" fill-rule="nonzero"/><path fill="rgb(27.059937%, 35.289001%, 39.219666%)" d="M 136.25 135.132812 L 134.933594 135.132812 C 134.933594 128.710938 139.785156 123.871094 146.21875 123.871094 C 150.433594 123.871094 153.71875 125.863281 155.980469 129.792969 L 154.839844 130.453125 C 152.832031 126.964844 149.929688 125.1875 146.21875 125.1875 C 140.445312 125.1875 136.25 129.371094 136.25 135.132812 Z M 136.25 135.132812 " fill-opacity="1" fill-rule="nonzero"/><path fill="rgb(21.569824%, 27.839661%, 30.979919%)" d="M 132.683594 133.441406 L 77.976562 133.441406 L 77.976562 136.558594 L 132.683594 136.558594 Z M 132.683594 133.441406 " fill-opacity="1" fill-rule="nonzero"/><path fill="rgb(27.059937%, 35.289001%, 39.219666%)" d="M 138.664062 104.195312 L 127.535156 64.285156 L 126.257812 64.644531 L 137.386719 104.550781 Z M 138.664062 104.195312 " fill-opacity="1" fill-rule="nonzero"/><path fill="rgb(21.569824%, 27.839661%, 30.979919%)" d="M 126.21875 61.527344 L 129.058594 56.609375 L 127.910156 55.945312 L 125.070312 60.863281 Z M 126.21875 61.527344 " fill-opacity="1" fill-rule="nonzero"/><path fill="rgb(21.569824%, 27.839661%, 30.979919%)" d="M 145.175781 124.199219 L 139.15625 102.605469 L 136.152344 103.441406 L 142.175781 125.035156 Z M 145.175781 124.199219 " fill-opacity="1" fill-rule="nonzero"/><path fill="rgb(100%, 78.039551%, 15.289307%)" d="M 144.003906 123.078125 L 141.171875 112.929688 L 139.761719 113.324219 L 142.59375 123.472656 Z M 144.003906 123.078125 " fill-opacity="1" fill-rule="nonzero"/><path fill="rgb(21.569824%, 27.839661%, 30.979919%)" d="M 128.492188 65.703125 L 126.96875 60.242188 L 124.695312 60.875 L 126.222656 66.339844 Z M 128.492188 65.703125 " fill-opacity="1" fill-rule="nonzero"/><path fill="rgb(21.569824%, 27.839661%, 30.979919%)" d="M 141.4375 120.902344 L 132.449219 132.023438 L 128.019531 132.023438 L 140.007812 117.113281 Z M 141.4375 120.902344 " fill-opacity="1" fill-rule="nonzero"/><path fill="rgb(21.569824%, 27.839661%, 30.979919%)" d="M 132.6875 132.023438 L 124.324219 132.023438 L 124.324219 133.441406 L 132.6875 133.441406 Z M 132.6875 132.023438 " fill-opacity="1" fill-rule="nonzero"/><path fill="rgb(21.569824%, 27.839661%, 30.979919%)" d="M 131.488281 55.578125 C 131.488281 55.960938 131.375 56.332031 131.164062 56.648438 C 130.953125 56.964844 130.652344 57.210938 130.300781 57.359375 C 129.949219 57.503906 129.5625 57.542969 129.1875 57.46875 C 128.816406 57.394531 128.472656 57.210938 128.203125 56.941406 C 127.933594 56.671875 127.75 56.328125 127.675781 55.957031 C 127.601562 55.582031 127.640625 55.195312 127.785156 54.84375 C 127.933594 54.492188 128.179688 54.191406 128.496094 53.980469 C 128.8125 53.769531 129.183594 53.65625 129.566406 53.65625 C 129.816406 53.65625 130.066406 53.703125 130.300781 53.800781 C 130.535156 53.898438 130.746094 54.039062 130.925781 54.21875 C 131.105469 54.398438 131.246094 54.609375 131.34375 54.84375 C 131.441406 55.078125 131.488281 55.328125 131.488281 55.578125 Z M 131.488281 55.578125 " fill-opacity="1" fill-rule="nonzero"/><path fill="rgb(100%, 78.039551%, 15.289307%)" d="M 130.695312 55.578125 C 130.699219 55.804688 130.632812 56.023438 130.507812 56.210938 C 130.382812 56.398438 130.207031 56.546875 129.996094 56.632812 C 129.789062 56.71875 129.5625 56.742188 129.339844 56.695312 C 129.121094 56.652344 128.917969 56.542969 128.757812 56.386719 C 128.601562 56.226562 128.492188 56.023438 128.449219 55.804688 C 128.402344 55.582031 128.425781 55.355469 128.511719 55.148438 C 128.597656 54.941406 128.746094 54.761719 128.933594 54.636719 C 129.121094 54.511719 129.339844 54.449219 129.566406 54.449219 C 129.863281 54.449219 130.152344 54.570312 130.363281 54.78125 C 130.578125 54.992188 130.695312 55.28125 130.695312 55.578125 Z M 130.695312 55.578125 " fill-opacity="1" fill-rule="nonzero"/><path fill="rgb(100%, 78.039551%, 15.289307%)" d="M 90.1875 134.351562 L 79.417969 134.351562 L 79.417969 135.652344 L 90.1875 135.652344 Z M 90.1875 134.351562 " fill-opacity="1" fill-rule="nonzero"/><path fill="rgb(14.898682%, 19.60907%, 21.958923%)" d="M 48.933594 129.832031 C 50.417969 129.765625 51.894531 129.730469 53.402344 129.707031 C 54.90625 129.679688 56.378906 129.683594 57.871094 129.664062 C 59.359375 129.648438 60.832031 129.664062 62.339844 129.707031 L 64.574219 129.75 C 65.316406 129.777344 66.058594 129.792969 66.808594 129.832031 C 66.058594 129.871094 65.316406 129.886719 64.574219 129.914062 L 62.339844 129.957031 C 60.847656 129.984375 59.355469 129.980469 57.871094 129.996094 C 56.382812 130.007812 54.886719 129.996094 53.402344 129.957031 C 51.914062 129.921875 50.417969 129.898438 48.933594 129.832031 Z M 48.933594 129.832031 " fill-opacity="1" fill-rule="nonzero"/><path fill="rgb(14.898682%, 19.60907%, 21.958923%)" d="M 56.066406 127.722656 C 57.101562 127.652344 58.140625 127.621094 59.175781 127.59375 C 60.210938 127.566406 61.246094 127.558594 62.28125 127.558594 C 63.320312 127.554688 64.355469 127.558594 65.390625 127.59375 L 66.945312 127.640625 C 67.464844 127.667969 67.980469 127.683594 68.5 127.722656 C 67.980469 127.757812 67.464844 127.773438 66.945312 127.800781 L 65.390625 127.847656 C 64.355469 127.875 63.320312 127.882812 62.28125 127.886719 C 61.246094 127.890625 60.210938 127.886719 59.175781 127.847656 C 58.140625 127.808594 57.101562 127.785156 56.066406 127.722656 Z M 56.066406 127.722656 " fill-opacity="1" fill-rule="nonzero"/><path fill="rgb(14.898682%, 19.60907%, 21.958923%)" d="M 57.800781 131.972656 C 58.699219 131.902344 59.601562 131.871094 60.5 131.84375 C 61.398438 131.816406 62.296875 131.8125 63.195312 131.808594 C 64.09375 131.804688 64.996094 131.808594 65.894531 131.84375 L 67.246094 131.890625 C 67.695312 131.917969 68.144531 131.933594 68.597656 131.972656 C 68.144531 132.007812 67.695312 132.023438 67.246094 132.050781 L 65.894531 132.097656 C 64.996094 132.128906 64.097656 132.128906 63.195312 132.132812 C 62.296875 132.136719 61.398438 132.132812 60.5 132.097656 C 59.601562 132.0625 58.699219 132.039062 57.800781 131.972656 Z M 57.800781 131.972656 " fill-opacity="1" fill-rule="nonzero"/><path fill="rgb(14.898682%, 19.60907%, 21.958923%)" d="M 52.167969 131.972656 C 52.753906 131.855469 53.347656 131.796875 53.945312 131.808594 C 54.542969 131.800781 55.140625 131.855469 55.726562 131.972656 C 54.550781 132.1875 53.34375 132.1875 52.167969 131.972656 Z M 52.167969 131.972656 " fill-opacity="1" fill-rule="nonzero"/><path fill="rgb(92.158508%, 58.039856%, 50.588989%)" d="M 108.9375 38.222656 C 111.105469 44.210938 117.253906 52.859375 119.753906 53.121094 C 120.945312 53.246094 123.046875 53.726562 124.738281 52.503906 C 128.421875 49.828125 131.800781 44.375 132.679688 41.160156 C 133.011719 40.011719 127.5625 36.976562 126.644531 37.84375 C 124.480469 39.886719 121.808594 44.027344 121.464844 43.972656 C 120.191406 43.753906 114.996094 39.035156 111.664062 36.097656 C 107.476562 32.417969 108.074219 35.835938 108.9375 38.222656 Z M 108.9375 38.222656 " fill-opacity="1" fill-rule="nonzero"/><path fill="rgb(92.158508%, 58.039856%, 50.588989%)" d="M 135.601562 40.277344 C 134.722656 41.757812 131.734375 44.078125 130.800781 44.359375 C 129.863281 44.644531 125.746094 39.699219 125.960938 38.71875 C 126.179688 37.738281 129.535156 32.984375 131.179688 32.371094 C 132.824219 31.753906 136.515625 38.742188 135.601562 40.277344 Z M 135.601562 40.277344 " fill-opacity="1" fill-rule="nonzero"/><path fill="rgb(92.158508%, 58.039856%, 50.588989%)" d="M 126.390625 37.8125 C 126.605469 36.4375 126.621094 35.035156 126.429688 33.65625 C 126.148438 32.011719 125.542969 29.625 126.429688 29.441406 C 128.226562 29.058594 129.722656 35.035156 129.722656 35.035156 C 129.722656 35.035156 129.960938 37.777344 128.21875 38.324219 C 127.894531 38.417969 127.554688 38.417969 127.230469 38.328125 C 126.910156 38.238281 126.617188 38.058594 126.390625 37.8125 Z M 126.390625 37.8125 " fill-opacity="1" fill-rule="nonzero"/><path fill="rgb(92.158508%, 58.039856%, 50.588989%)" d="M 128.835938 33.828125 C 128.835938 34.738281 129.917969 34.210938 129.917969 34.210938 C 129.917969 34.210938 128.558594 35.34375 128.929688 36.28125 C 129.300781 37.21875 130.574219 36.5 130.652344 36.453125 C 130.582031 36.511719 129.359375 37.589844 129.832031 38.492188 C 130.300781 39.398438 131.476562 38.523438 131.550781 38.464844 C 131.503906 38.542969 130.867188 39.59375 131.382812 40.199219 C 132.261719 41.242188 133.960938 38.605469 135.050781 38.417969 C 135.050781 38.417969 135.578125 40.226562 135.601562 40.277344 C 135.601562 40.277344 137.273438 37.800781 136.9375 36.347656 C 136.894531 36.136719 136.777344 35.945312 136.609375 35.808594 C 136.441406 35.671875 136.230469 35.597656 136.015625 35.59375 C 136.015625 35.59375 136.640625 34.855469 136.292969 34.132812 C 136.113281 33.761719 135.359375 33.71875 135.359375 33.71875 C 135.492188 33.542969 135.574219 33.335938 135.597656 33.117188 C 135.621094 32.898438 135.582031 32.679688 135.488281 32.480469 C 135.210938 31.980469 134.5 32.015625 134.5 32.015625 C 134.5 32.015625 134.683594 31.214844 134.238281 30.796875 C 133.328125 29.953125 128.828125 31.890625 128.835938 33.828125 Z M 128.835938 33.828125 " fill-opacity="1" fill-rule="nonzero"/><path fill="rgb(14.898682%, 19.60907%, 21.958923%)" d="M 134.382812 32.003906 C 134.398438 32.003906 134.382812 31.976562 134.382812 31.976562 C 132.679688 32.253906 131.101562 33.039062 129.859375 34.230469 C 129.820312 34.273438 129.859375 34.351562 129.917969 34.3125 C 131.285156 33.332031 132.789062 32.554688 134.382812 32.003906 Z M 134.382812 32.003906 " fill-opacity="1" fill-rule="nonzero"/><path fill="rgb(14.898682%, 19.60907%, 21.958923%)" d="M 135.375 33.699219 C 135.394531 33.699219 135.375 33.664062 135.375 33.667969 C 133.503906 33.988281 131.808594 34.96875 130.597656 36.429688 C 130.554688 36.484375 130.570312 36.570312 130.625 36.515625 C 131.480469 35.5625 133.871094 34.191406 135.375 33.699219 Z M 135.375 33.699219 " fill-opacity="1" fill-rule="nonzero"/><path fill="rgb(14.898682%, 19.60907%, 21.958923%)" d="M 131.503906 38.601562 C 132.699219 37.183594 134.234375 36.296875 135.9375 35.601562 C 135.960938 35.601562 135.9375 35.5625 135.9375 35.566406 C 135.011719 35.671875 133.964844 36.222656 133.195312 36.726562 C 132.46875 37.175781 131.875 37.808594 131.464844 38.558594 C 131.4375 38.589844 131.476562 38.632812 131.503906 38.601562 Z M 131.503906 38.601562 " fill-opacity="1" fill-rule="nonzero"/><path fill="rgb(14.898682%, 19.60907%, 21.958923%)" d="M 129.886719 34.191406 C 129.839844 34.242188 129.960938 34.257812 129.914062 34.304688 C 129.726562 34.507812 128.699219 35.824219 129.042969 36.3125 C 129.316406 36.703125 130.027344 36.609375 130.289062 36.464844 L 130.945312 36.097656 L 130.460938 36.667969 C 130.242188 36.917969 130.0625 37.203125 129.9375 37.507812 C 129.871094 37.648438 129.832031 37.800781 129.828125 37.953125 C 129.824219 38.109375 129.851562 38.261719 129.910156 38.402344 C 129.964844 38.542969 130.0625 38.660156 130.191406 38.730469 C 130.320312 38.804688 130.472656 38.828125 130.617188 38.800781 C 130.933594 38.730469 131.222656 38.582031 131.464844 38.371094 L 132.148438 37.808594 L 131.6875 38.5625 C 131.558594 38.769531 131.457031 38.988281 131.382812 39.21875 C 131.308594 39.441406 131.300781 39.679688 131.359375 39.90625 C 131.390625 40.003906 131.445312 40.09375 131.527344 40.164062 C 131.605469 40.230469 131.699219 40.277344 131.800781 40.296875 C 132.039062 40.300781 132.273438 40.238281 132.476562 40.117188 C 132.917969 39.851562 133.339844 39.558594 133.734375 39.230469 C 133.941406 39.070312 134.144531 38.902344 134.359375 38.765625 C 134.566406 38.609375 134.804688 38.496094 135.058594 38.4375 C 134.816406 38.527344 134.59375 38.660156 134.402344 38.835938 C 134.203125 39 134.007812 39.164062 133.816406 39.34375 C 133.433594 39.707031 133.019531 40.03125 132.574219 40.3125 C 132.339844 40.472656 132.0625 40.558594 131.777344 40.558594 C 131.621094 40.542969 131.472656 40.484375 131.355469 40.382812 C 131.234375 40.285156 131.140625 40.15625 131.09375 40.007812 C 131.011719 39.730469 131.011719 39.433594 131.09375 39.15625 C 131.171875 38.894531 131.28125 38.640625 131.425781 38.402344 L 131.648438 38.59375 C 131.371094 38.851562 131.027344 39.027344 130.660156 39.113281 C 130.453125 39.152344 130.238281 39.117188 130.054688 39.015625 C 129.875 38.910156 129.734375 38.753906 129.644531 38.570312 C 129.570312 38.386719 129.53125 38.191406 129.539062 37.996094 C 129.542969 37.800781 129.589844 37.609375 129.675781 37.433594 C 129.820312 37.097656 130.019531 36.789062 130.265625 36.515625 L 130.429688 36.722656 C 130.101562 36.894531 129.308594 37.089844 128.808594 36.535156 C 128.253906 35.695312 129.628906 34.417969 129.886719 34.191406 Z M 129.886719 34.191406 " fill-opacity="1" fill-rule="nonzero"/><path fill="rgb(14.898682%, 19.60907%, 21.958923%)" d="M 129.917969 34.210938 C 129.734375 34.257812 129.546875 34.277344 129.359375 34.273438 C 129.285156 34.269531 129.210938 34.25 129.144531 34.210938 C 129.082031 34.171875 129.027344 34.113281 128.992188 34.046875 C 128.9375 33.890625 128.925781 33.71875 128.960938 33.558594 C 128.996094 33.375 129.035156 33.1875 129.085938 32.996094 C 128.941406 33.140625 128.832031 33.316406 128.757812 33.507812 C 128.714844 33.613281 128.691406 33.722656 128.691406 33.835938 C 128.691406 33.949219 128.714844 34.0625 128.757812 34.167969 C 128.816406 34.277344 128.90625 34.367188 129.015625 34.421875 C 129.117188 34.46875 129.230469 34.488281 129.34375 34.476562 C 129.558594 34.453125 129.761719 34.359375 129.917969 34.210938 Z M 129.917969 34.210938 " fill-opacity="1" fill-rule="nonzero"/><path fill="rgb(100%, 78.039551%, 15.289307%)" d="M 116.839844 40.074219 L 112.417969 46.269531 C 112.417969 46.269531 108.640625 38.800781 108.140625 36.289062 C 107.585938 33.464844 109.152344 33.800781 111.429688 35.300781 C 113.707031 36.800781 116.839844 40.074219 116.839844 40.074219 Z M 116.839844 40.074219 " fill-opacity="1" fill-rule="nonzero"/><path fill="rgb(14.898682%, 19.60907%, 21.958923%)" d="M 115.679688 39.480469 C 115.492188 39.671875 114.097656 41.59375 113.804688 42.015625 C 113.511719 42.433594 112.292969 44.160156 112.023438 44.621094 C 112.023438 44.625 112.023438 44.628906 112.023438 44.632812 C 112.027344 44.636719 112.027344 44.640625 112.03125 44.640625 C 112.035156 44.644531 112.039062 44.644531 112.042969 44.644531 C 112.046875 44.644531 112.050781 44.644531 112.054688 44.644531 C 112.402344 44.242188 113.636719 42.511719 113.945312 42.085938 C 114.257812 41.660156 115.59375 39.730469 115.710938 39.5 C 115.71875 39.480469 115.691406 39.457031 115.679688 39.480469 Z M 115.679688 39.480469 " fill-opacity="1" fill-rule="nonzero"/><path fill="rgb(0%, 0%, 0%)" d="M 116.222656 40.941406 L 112.417969 46.269531 C 112.417969 46.269531 108.640625 38.800781 108.140625 36.289062 C 107.808594 34.523438 108.277344 33.984375 109.246094 34.210938 C 110.847656 35.738281 113.945312 38.71875 116.222656 40.941406 Z M 116.222656 40.941406 " fill-opacity="0.098" fill-rule="nonzero"/><path fill="rgb(100%, 78.039551%, 15.289307%)" d="M 118.089844 58.410156 L 98.015625 61.042969 C 97.703125 60.714844 99.054688 47.660156 100.679688 42.558594 C 102.765625 36.015625 104.375 35.503906 105.097656 34.839844 C 106.433594 33.609375 109.335938 33.917969 109.820312 34.183594 C 110.679688 34.667969 112.238281 37.050781 113.214844 39.25 C 115.175781 43.671875 118.335938 58.085938 118.089844 58.410156 Z M 118.089844 58.410156 " fill-opacity="1" fill-rule="nonzero"/><path fill="rgb(0%, 0%, 0%)" d="M 117.34375 54.144531 L 98.257812 56.707031 C 98.300781 56.316406 98.34375 55.90625 98.390625 55.480469 L 117.078125 52.972656 Z M 117.578125 55.269531 L 98.164062 57.878906 C 98.121094 58.324219 98.089844 58.734375 98.0625 59.101562 L 117.808594 56.445312 C 117.746094 56.09375 117.667969 55.699219 117.578125 55.269531 Z M 117.578125 55.269531 " fill-opacity="0.098" fill-rule="nonzero"/><path fill="rgb(92.158508%, 58.039856%, 50.588989%)" d="M 109.730469 38.027344 C 108.636719 38.378906 106.59375 36.824219 105.734375 35.507812 C 105.675781 35.417969 105.734375 34.40625 105.769531 33.175781 C 105.769531 32.429688 105.769531 31.597656 105.722656 30.839844 C 105.722656 30.683594 110.570312 31.636719 110.570312 31.636719 C 110.371094 32.609375 110.289062 33.605469 110.332031 34.597656 C 110.339844 34.703125 110.359375 34.804688 110.390625 34.90625 C 110.386719 34.925781 110.386719 34.941406 110.390625 34.960938 C 110.542969 35.507812 110.792969 37.691406 109.730469 38.027344 Z M 109.730469 38.027344 " fill-opacity="1" fill-rule="nonzero"/><path fill="rgb(14.898682%, 19.60907%, 21.958923%)" d="M 106.015625 30.820312 C 106.34375 32.085938 107.367188 35.128906 109.910156 34.992188 C 110.074219 34.984375 110.238281 34.964844 110.394531 34.929688 C 110.398438 34.914062 110.398438 34.894531 110.394531 34.878906 C 110.367188 34.777344 110.347656 34.675781 110.339844 34.570312 C 110.296875 33.578125 110.378906 32.582031 110.578125 31.609375 C 110.578125 31.609375 107.066406 30.933594 106.015625 30.820312 Z M 106.015625 30.820312 " fill-opacity="1" fill-rule="nonzero"/><path fill="rgb(92.158508%, 58.039856%, 50.588989%)" d="M 105.277344 25.027344 C 104.761719 26.71875 105.660156 31.605469 106.867188 32.695312 C 108.609375 34.273438 111.472656 34.425781 112.8125 32.328125 C 114.113281 30.292969 112.832031 23.941406 111.496094 22.949219 C 109.492188 21.492188 106.03125 22.523438 105.277344 25.027344 Z M 105.277344 25.027344 " fill-opacity="1" fill-rule="nonzero"/><path fill="rgb(14.898682%, 19.60907%, 21.958923%)" d="M 109.5 28.160156 C 109.5 28.160156 109.476562 28.179688 109.480469 28.195312 C 109.546875 28.523438 109.566406 28.910156 109.289062 29.070312 C 109.289062 29.070312 109.289062 29.089844 109.289062 29.070312 C 109.648438 28.972656 109.617188 28.460938 109.5 28.160156 Z M 109.5 28.160156 " fill-opacity="1" fill-rule="nonzero"/><path fill="rgb(14.898682%, 19.60907%, 21.958923%)" d="M 109.148438 27.863281 C 108.613281 27.910156 108.746094 28.984375 109.246094 28.941406 C 109.742188 28.898438 109.601562 27.824219 109.148438 27.863281 Z M 109.148438 27.863281 " fill-opacity="1" fill-rule="nonzero"/><path fill="rgb(14.898682%, 19.60907%, 21.958923%)" d="M 111.441406 27.941406 C 111.441406 27.941406 111.46875 27.941406 111.472656 27.96875 C 111.503906 28.296875 111.59375 28.679688 111.910156 28.75 C 111.53125 28.75 111.417969 28.246094 111.441406 27.941406 Z M 111.441406 27.941406 " fill-opacity="1" fill-rule="nonzero"/><path fill="rgb(14.898682%, 19.60907%, 21.958923%)" d="M 111.691406 27.542969 C 112.222656 27.433594 112.398438 28.5 111.910156 28.601562 C 111.417969 28.703125 111.25 27.636719 111.691406 27.542969 Z M 111.691406 27.542969 " fill-opacity="1" fill-rule="nonzero"/><path fill="rgb(14.898682%, 19.60907%, 21.958923%)" d="M 108.664062 27.425781 C 108.808594 27.371094 108.929688 27.300781 109.0625 27.230469 C 109.210938 27.179688 109.339844 27.082031 109.429688 26.949219 C 109.449219 26.902344 109.453125 26.851562 109.4375 26.804688 C 109.425781 26.753906 109.394531 26.710938 109.355469 26.679688 C 109.269531 26.628906 109.171875 26.601562 109.070312 26.601562 C 108.96875 26.601562 108.871094 26.628906 108.785156 26.679688 C 108.589844 26.761719 108.4375 26.910156 108.351562 27.097656 C 108.257812 27.300781 108.476562 27.5 108.664062 27.425781 Z M 108.664062 27.425781 " fill-opacity="1" fill-rule="nonzero"/><path fill="rgb(14.898682%, 19.60907%, 21.958923%)" d="M 112.042969 26.953125 C 111.890625 26.953125 111.75 26.917969 111.601562 26.898438 C 111.441406 26.898438 111.289062 26.847656 111.164062 26.753906 C 111.128906 26.714844 111.109375 26.667969 111.105469 26.617188 C 111.101562 26.570312 111.113281 26.519531 111.140625 26.476562 C 111.207031 26.402344 111.292969 26.34375 111.390625 26.3125 C 111.484375 26.28125 111.585938 26.277344 111.6875 26.300781 C 111.894531 26.3125 112.089844 26.402344 112.234375 26.550781 C 112.261719 26.589844 112.28125 26.632812 112.289062 26.679688 C 112.296875 26.726562 112.289062 26.773438 112.265625 26.816406 C 112.246094 26.855469 112.214844 26.894531 112.175781 26.917969 C 112.136719 26.941406 112.089844 26.953125 112.042969 26.953125 Z M 112.042969 26.953125 " fill-opacity="1" fill-rule="nonzero"/><path fill="rgb(14.898682%, 19.60907%, 21.958923%)" d="M 109.886719 30.222656 C 109.988281 30.34375 110.113281 30.441406 110.253906 30.511719 C 110.394531 30.582031 110.546875 30.621094 110.707031 30.628906 C 110.84375 30.636719 110.980469 30.625 111.113281 30.597656 L 111.1875 30.597656 L 111.261719 30.574219 C 111.28125 30.570312 111.296875 30.558594 111.304688 30.542969 C 111.316406 30.527344 111.320312 30.507812 111.316406 30.492188 C 111.320312 30.480469 111.320312 30.464844 111.316406 30.453125 L 111.316406 30.425781 C 111.292969 30.167969 111.21875 29.765625 111.21875 29.765625 C 111.316406 29.800781 111.820312 29.953125 111.792969 29.824219 C 111.621094 28.671875 111.328125 27.542969 110.925781 26.453125 C 110.925781 26.445312 110.921875 26.441406 110.914062 26.4375 C 110.910156 26.433594 110.902344 26.429688 110.894531 26.429688 C 110.886719 26.429688 110.882812 26.433594 110.875 26.4375 C 110.871094 26.441406 110.867188 26.445312 110.863281 26.453125 C 111.023438 27.515625 111.363281 28.546875 111.523438 29.609375 C 111.339844 29.554688 111.15625 29.523438 110.964844 29.515625 C 110.929688 29.515625 111.125 30.257812 111.125 30.375 C 110.917969 30.421875 110.703125 30.429688 110.492188 30.390625 C 110.285156 30.355469 110.085938 30.273438 109.90625 30.160156 C 109.886719 30.171875 109.859375 30.199219 109.886719 30.222656 Z M 109.886719 30.222656 " fill-opacity="1" fill-rule="nonzero"/><path fill="rgb(14.898682%, 19.60907%, 21.958923%)" d="M 110.945312 30.503906 C 110.820312 30.699219 110.648438 30.859375 110.441406 30.96875 C 110.328125 31.023438 110.199219 31.042969 110.074219 31.019531 C 109.804688 30.976562 109.773438 30.726562 109.808594 30.515625 C 109.824219 30.40625 109.855469 30.292969 109.898438 30.1875 C 110.207031 30.402344 110.570312 30.511719 110.945312 30.503906 Z M 110.945312 30.503906 " fill-opacity="1" fill-rule="nonzero"/><path fill="rgb(100%, 60.778809%, 73.728943%)" d="M 110.441406 30.96875 C 110.328125 31.023438 110.199219 31.042969 110.074219 31.019531 C 109.804688 30.976562 109.773438 30.726562 109.808594 30.515625 C 109.949219 30.507812 110.089844 30.550781 110.203125 30.632812 C 110.320312 30.714844 110.402344 30.832031 110.441406 30.96875 Z M 110.441406 30.96875 " fill-opacity="1" fill-rule="nonzero"/><path fill="rgb(14.898682%, 19.60907%, 21.958923%)" d="M 105.253906 28.167969 C 105.558594 27.992188 106.089844 26.925781 106.324219 26.488281 C 106.5625 26.050781 106.421875 23.988281 106.359375 23.378906 C 105.871094 23.765625 105.503906 24.285156 105.300781 24.875 C 105.066406 25.566406 105.070312 26.859375 105.253906 28.167969 Z M 105.253906 28.167969 " fill-opacity="0.2" fill-rule="nonzero"/><path fill="rgb(14.898682%, 19.60907%, 21.958923%)" d="M 108.078125 20.875 C 107.652344 20.957031 107.257812 21.144531 106.925781 21.417969 C 106.59375 21.695312 106.335938 22.046875 106.175781 22.449219 C 106.054688 22.847656 106.074219 23.273438 106.226562 23.65625 C 106.226562 23.65625 106.265625 23.65625 106.261719 23.65625 C 106.171875 23.304688 106.179688 22.9375 106.28125 22.589844 C 106.386719 22.242188 106.582031 21.929688 106.847656 21.683594 C 107.136719 21.402344 107.484375 21.191406 107.867188 21.070312 C 108.25 20.949219 108.652344 20.917969 109.050781 20.976562 C 109.429688 21.03125 109.78125 21.21875 110.039062 21.503906 C 110.0625 21.535156 110.128906 21.503906 110.105469 21.46875 C 109.753906 20.9375 108.898438 20.703125 108.078125 20.875 Z M 108.078125 20.875 " fill-opacity="1" fill-rule="nonzero"/><path fill="rgb(14.898682%, 19.60907%, 21.958923%)" d="M 113.863281 21.851562 C 113.621094 21.421875 113.234375 21.089844 112.777344 20.914062 C 112.136719 20.671875 111.503906 20.851562 110.875 21.039062 C 110.875 21.039062 110.875 21.066406 110.875 21.0625 C 111.402344 20.859375 111.972656 20.816406 112.523438 20.9375 C 112.976562 21.066406 113.375 21.351562 113.644531 21.738281 C 113.902344 22.140625 114.011719 22.621094 113.949219 23.09375 C 113.882812 23.570312 113.652344 24.003906 113.296875 24.320312 C 113.082031 24.5 112.835938 24.632812 112.570312 24.710938 C 112.304688 24.789062 112.027344 24.816406 111.753906 24.78125 C 111.730469 24.78125 111.722656 24.8125 111.753906 24.816406 C 112.128906 24.875 112.511719 24.828125 112.859375 24.679688 C 113.210938 24.53125 113.511719 24.289062 113.734375 23.980469 C 113.953125 23.671875 114.082031 23.308594 114.105469 22.929688 C 114.128906 22.550781 114.046875 22.171875 113.867188 21.835938 Z M 113.863281 21.851562 " fill-opacity="1" fill-rule="nonzero"/><path fill="rgb(14.898682%, 19.60907%, 21.958923%)" d="M 105.125 26.144531 C 105.125 26.144531 103.929688 24.648438 104.488281 23.546875 C 104.820312 22.917969 106.207031 22.730469 106.207031 22.730469 C 106.335938 22.421875 106.527344 22.140625 106.769531 21.90625 C 107.007812 21.671875 107.292969 21.484375 107.605469 21.359375 C 108.71875 20.875 110.238281 21.292969 110.238281 21.292969 C 110.238281 21.292969 111.226562 20.457031 112.367188 20.851562 C 113.964844 21.40625 114.195312 23.636719 112.878906 24.613281 C 111.949219 25.300781 110.394531 24.660156 110.394531 24.660156 C 110.269531 24.703125 109.058594 25.777344 107.800781 24.753906 C 107.800781 24.753906 107.101562 25.65625 106.253906 25.277344 C 106.175781 25.519531 106.027344 25.734375 105.828125 25.890625 C 105.625 26.042969 105.378906 26.132812 105.125 26.144531 Z M 105.125 26.144531 " fill-opacity="1" fill-rule="nonzero"/><path fill="rgb(27.059937%, 35.289001%, 39.219666%)" d="M 111.351562 28.191406 C 111.246094 27.367188 111.597656 26.636719 112.144531 26.566406 C 112.6875 26.492188 113.21875 27.101562 113.328125 27.925781 C 113.4375 28.746094 113.085938 29.476562 112.542969 29.550781 C 111.996094 29.621094 111.464844 29.011719 111.351562 28.191406 Z M 111.554688 28.164062 C 111.648438 28.875 112.082031 29.410156 112.515625 29.347656 C 112.949219 29.289062 113.226562 28.664062 113.128906 27.949219 C 113.035156 27.238281 112.605469 26.707031 112.167969 26.765625 C 111.734375 26.824219 111.457031 27.449219 111.554688 28.164062 Z M 111.554688 28.164062 " fill-opacity="1" fill-rule="nonzero"/><path fill="rgb(27.059937%, 35.289001%, 39.219666%)" d="M 107.804688 28.695312 C 107.789062 28.421875 107.851562 28.148438 107.988281 27.910156 C 108.125 27.675781 108.328125 27.484375 108.574219 27.359375 C 108.816406 27.234375 109.09375 27.183594 109.363281 27.214844 C 109.636719 27.246094 109.894531 27.355469 110.105469 27.527344 C 110.316406 27.703125 110.472656 27.933594 110.554688 28.195312 C 110.636719 28.457031 110.640625 28.738281 110.5625 29 C 110.488281 29.265625 110.339844 29.5 110.132812 29.679688 C 109.925781 29.859375 109.671875 29.972656 109.398438 30.011719 C 109.011719 30.046875 108.628906 29.929688 108.332031 29.679688 C 108.03125 29.433594 107.84375 29.082031 107.804688 28.695312 Z M 108.003906 28.667969 C 108.054688 28.898438 108.167969 29.105469 108.335938 29.273438 C 108.503906 29.4375 108.714844 29.546875 108.945312 29.59375 C 109.175781 29.640625 109.414062 29.617188 109.632812 29.53125 C 109.851562 29.445312 110.039062 29.296875 110.171875 29.105469 C 110.308594 28.910156 110.382812 28.683594 110.390625 28.449219 C 110.398438 28.214844 110.339844 27.984375 110.214844 27.785156 C 110.09375 27.582031 109.917969 27.421875 109.707031 27.320312 C 109.492188 27.21875 109.257812 27.183594 109.023438 27.214844 C 108.695312 27.273438 108.40625 27.460938 108.214844 27.730469 C 108.023438 28.003906 107.949219 28.339844 108.003906 28.667969 Z M 108.003906 28.667969 " fill-opacity="1" fill-rule="nonzero"/><path fill="rgb(27.059937%, 35.289001%, 39.219666%)" d="M 110.496094 28.195312 C 111.085938 27.867188 111.398438 28.054688 111.398438 28.058594 L 111.480469 27.886719 C 111.480469 27.886719 111.089844 27.613281 110.417969 28.011719 Z M 110.496094 28.195312 " fill-opacity="1" fill-rule="nonzero"/><path fill="rgb(27.059937%, 35.289001%, 39.219666%)" d="M 107.890625 28.550781 L 107.890625 28.347656 C 107.753906 28.347656 105.519531 28.207031 105.183594 28.234375 C 104.847656 28.261719 104.082031 28.824219 103.996094 28.890625 L 104.117188 29.054688 C 104.4375 28.789062 104.796875 28.582031 105.1875 28.4375 C 105.464844 28.414062 106.765625 28.492188 107.890625 28.550781 Z M 107.890625 28.550781 " fill-opacity="1" fill-rule="nonzero"/><path fill="rgb(92.158508%, 58.039856%, 50.588989%)" d="M 106.316406 29.011719 C 106.316406 29.011719 105.175781 27.449219 104.46875 27.859375 C 103.761719 28.265625 104.636719 30.542969 105.488281 30.839844 C 105.59375 30.886719 105.707031 30.910156 105.824219 30.910156 C 105.9375 30.910156 106.050781 30.886719 106.160156 30.839844 C 106.265625 30.796875 106.363281 30.730469 106.441406 30.644531 C 106.523438 30.5625 106.585938 30.464844 106.625 30.355469 Z M 106.316406 29.011719 " fill-opacity="1" fill-rule="nonzero"/><path fill="rgb(14.898682%, 19.60907%, 21.958923%)" d="M 104.734375 28.507812 C 104.734375 28.507812 104.734375 28.507812 104.734375 28.527344 C 105.332031 28.753906 105.65625 29.296875 105.882812 29.84375 C 105.847656 29.785156 105.800781 29.734375 105.742188 29.699219 C 105.6875 29.660156 105.621094 29.632812 105.554688 29.625 C 105.488281 29.613281 105.417969 29.617188 105.355469 29.632812 C 105.289062 29.652344 105.226562 29.683594 105.175781 29.726562 C 105.175781 29.726562 105.175781 29.765625 105.191406 29.761719 C 105.292969 29.722656 105.402344 29.722656 105.507812 29.753906 C 105.613281 29.78125 105.707031 29.84375 105.773438 29.929688 C 105.882812 30.074219 105.980469 30.230469 106.0625 30.394531 C 106.089844 30.449219 106.183594 30.414062 106.164062 30.355469 C 106.15625 29.605469 105.546875 28.566406 104.734375 28.507812 Z M 104.734375 28.507812 " fill-opacity="1" fill-rule="nonzero"/><path fill="rgb(92.158508%, 58.039856%, 50.588989%)" d="M 103.214844 38.910156 C 102.609375 43.515625 102.816406 53.015625 104.632812 55.929688 C 105.546875 57.386719 114.546875 58.019531 116.996094 58.042969 C 118.011719 58.042969 120.472656 50.226562 119.417969 50.132812 C 117.96875 49.996094 110.457031 49.800781 109.855469 49.257812 C 109.253906 48.714844 107.859375 42.757812 107.019531 38.910156 C 105.964844 34.0625 103.730469 35.023438 103.214844 38.910156 Z M 103.214844 38.910156 " fill-opacity="1" fill-rule="nonzero"/><path fill="rgb(92.158508%, 58.039856%, 50.588989%)" d="M 116.582031 50.066406 C 116.582031 50.066406 120.449219 49.820312 122.671875 49.714844 C 123.914062 49.65625 126.050781 49.746094 126.980469 50.121094 C 128.375 50.679688 133.84375 53.914062 133.085938 55.253906 C 132.402344 56.472656 128.058594 53.097656 128.058594 53.097656 C 128.058594 53.097656 132.742188 56.113281 131.652344 57.425781 C 130.558594 58.738281 126.160156 54.265625 126.160156 54.265625 C 126.160156 54.265625 130.898438 57.472656 129.5625 58.648438 C 128.546875 59.53125 124.335938 55.714844 124.335938 55.714844 C 124.335938 55.714844 128.394531 58.5 127.390625 59.457031 C 126.285156 60.515625 122.167969 57.234375 122.167969 57.234375 C 119.207031 59.238281 116.230469 58.125 114.75 57.480469 C 114.394531 57.332031 116.582031 50.066406 116.582031 50.066406 Z M 116.582031 50.066406 " fill-opacity="1" fill-rule="nonzero"/><path fill="rgb(14.898682%, 19.60907%, 21.958923%)" d="M 126.785156 52.125 C 128.898438 53.351562 130.734375 55.085938 131.34375 55.894531 C 131.421875 55.996094 131.484375 56.085938 131.476562 56.082031 C 130.488281 55.21875 127.296875 52.53125 126.769531 52.132812 C 126.753906 52.136719 126.769531 52.117188 126.785156 52.125 Z M 126.785156 52.125 " fill-opacity="1" fill-rule="nonzero"/><path fill="rgb(14.898682%, 19.60907%, 21.958923%)" d="M 125.085938 53.847656 C 126.820312 54.539062 128.457031 56.226562 129.101562 56.761719 C 129.148438 56.800781 129.101562 56.8125 129.058594 56.761719 C 128.398438 56.257812 125.765625 54.320312 125.078125 53.847656 C 125.0625 53.851562 125.078125 53.839844 125.085938 53.847656 Z M 125.085938 53.847656 " fill-opacity="1" fill-rule="nonzero"/><path fill="rgb(14.898682%, 19.60907%, 21.958923%)" d="M 123.75 55.371094 C 124.851562 55.90625 125.828125 56.664062 126.617188 57.601562 C 126.660156 57.648438 126.617188 57.652344 126.558594 57.601562 C 125.574219 56.800781 124.964844 56.285156 123.726562 55.394531 C 123.707031 55.394531 123.726562 55.359375 123.75 55.371094 Z M 123.75 55.371094 " fill-opacity="1" fill-rule="nonzero"/><path fill="rgb(14.898682%, 19.60907%, 21.958923%)" d="M 114.621094 49.902344 C 115.648438 50.007812 116.6875 50.007812 117.714844 49.902344 L 120.8125 49.660156 C 121.847656 49.609375 122.886719 49.546875 123.925781 49.582031 C 124.96875 49.613281 126.03125 49.675781 126.980469 50.125 C 126.496094 49.953125 125.984375 49.851562 125.46875 49.820312 C 124.957031 49.777344 124.441406 49.757812 123.921875 49.769531 C 122.894531 49.769531 121.859375 49.832031 120.828125 49.90625 C 119.792969 49.984375 118.765625 50.050781 117.722656 50.097656 C 117.207031 50.117188 116.683594 50.136719 116.164062 50.097656 C 115.644531 50.074219 115.128906 50.007812 114.621094 49.902344 Z M 114.621094 49.902344 " fill-opacity="1" fill-rule="nonzero"/><path fill="rgb(100%, 78.039551%, 15.289307%)" d="M 109.070312 44.613281 L 102.070312 47.605469 C 102.070312 47.605469 102.730469 39.261719 103.621094 36.859375 C 104.609375 34.160156 105.78125 35.261719 106.945312 37.738281 C 108.109375 40.210938 109.070312 44.613281 109.070312 44.613281 Z M 109.070312 44.613281 " fill-opacity="1" fill-rule="nonzero"/><path fill="rgb(14.898682%, 19.60907%, 21.958923%)" d="M 108.386719 43.5 C 108.132812 43.570312 105.941406 44.488281 105.46875 44.691406 C 104.996094 44.894531 103.0625 45.734375 102.59375 46.007812 C 102.589844 46.011719 102.585938 46.011719 102.585938 46.015625 C 102.582031 46.019531 102.582031 46.023438 102.582031 46.027344 C 102.582031 46.03125 102.582031 46.035156 102.585938 46.039062 C 102.585938 46.039062 102.589844 46.042969 102.59375 46.042969 C 103.097656 45.878906 105.050781 45.058594 105.554688 44.839844 C 106.058594 44.625 108.1875 43.683594 108.40625 43.546875 C 108.425781 43.519531 108.40625 43.496094 108.386719 43.5 Z M 108.386719 43.5 " fill-opacity="1" fill-rule="nonzero"/><path fill="rgb(14.898682%, 19.60907%, 21.958923%)" d="M 108.164062 45 C 108.453125 44.84375 108.746094 44.691406 109.042969 44.550781 L 109.003906 44.628906 L 108.625 43.253906 L 108.257812 41.871094 C 108.015625 40.953125 107.78125 40.035156 107.511719 39.117188 C 107.71875 39.546875 107.902344 39.984375 108.054688 40.433594 C 108.21875 40.886719 108.359375 41.34375 108.492188 41.800781 C 108.75 42.71875 108.972656 43.648438 109.148438 44.589844 L 109.148438 44.648438 L 109.101562 44.667969 C 108.789062 44.792969 108.480469 44.898438 108.164062 45 Z M 108.164062 45 " fill-opacity="1" fill-rule="nonzero"/><path fill="rgb(14.898682%, 19.60907%, 21.958923%)" d="M 108.144531 41.03125 C 108.082031 40.820312 108.042969 40.605469 108.03125 40.386719 C 108.007812 40.167969 108.007812 39.949219 108.03125 39.730469 C 108.117188 39.933594 108.167969 40.148438 108.179688 40.367188 C 108.207031 40.589844 108.195312 40.8125 108.144531 41.03125 Z M 108.144531 41.03125 " fill-opacity="1" fill-rule="nonzero"/><path fill="rgb(14.898682%, 19.60907%, 21.958923%)" d="M 102.910156 47.246094 C 102.640625 47.390625 102.367188 47.519531 102.097656 47.65625 L 102.007812 47.703125 L 102.007812 47.597656 C 102.027344 47.066406 102.039062 46.539062 102.082031 46.007812 C 102.125 45.480469 102.164062 44.953125 102.222656 44.421875 C 102.277344 43.894531 102.351562 43.371094 102.433594 42.847656 C 102.519531 42.324219 102.613281 41.800781 102.742188 41.285156 C 102.703125 41.8125 102.65625 42.339844 102.605469 42.867188 C 102.558594 43.390625 102.515625 43.921875 102.460938 44.449219 L 102.316406 46.039062 L 102.140625 47.617188 L 102.054688 47.558594 C 102.332031 47.445312 102.621094 47.355469 102.910156 47.246094 Z M 102.910156 47.246094 " fill-opacity="1" fill-rule="nonzero"/><path fill="rgb(14.898682%, 19.60907%, 21.958923%)" d="M 102.332031 41.800781 C 102.394531 42.0625 102.433594 42.328125 102.453125 42.597656 C 102.453125 42.726562 102.46875 42.859375 102.46875 42.996094 C 102.46875 43.128906 102.46875 43.261719 102.46875 43.398438 C 102.371094 43.144531 102.3125 42.878906 102.296875 42.609375 C 102.273438 42.339844 102.285156 42.066406 102.332031 41.800781 Z M 102.332031 41.800781 " fill-opacity="1" fill-rule="nonzero"/><path fill="rgb(100%, 100%, 100%)" d="M 132.652344 18.765625 C 132.507812 20.15625 131.976562 21.476562 131.125 22.585938 C 130.269531 23.691406 129.128906 24.539062 127.820312 25.035156 C 126.511719 25.53125 125.09375 25.652344 123.71875 25.386719 C 122.347656 25.125 121.074219 24.484375 120.042969 23.539062 L 116.269531 24.089844 L 118.160156 20.828125 C 117.691406 19.683594 117.511719 18.4375 117.640625 17.207031 C 117.738281 16.21875 118.03125 15.253906 118.5 14.378906 C 118.96875 13.5 119.609375 12.722656 120.378906 12.09375 C 121.152344 11.464844 122.039062 10.992188 122.992188 10.707031 C 123.945312 10.421875 124.949219 10.328125 125.9375 10.433594 C 126.929688 10.535156 127.886719 10.835938 128.761719 11.3125 C 129.636719 11.789062 130.40625 12.433594 131.03125 13.207031 C 131.65625 13.984375 132.121094 14.875 132.398438 15.832031 C 132.675781 16.785156 132.761719 17.789062 132.652344 18.777344 Z M 132.652344 18.765625 " fill-opacity="1" fill-rule="nonzero"/><path fill="rgb(14.898682%, 19.60907%, 21.958923%)" d="M 132.652344 18.765625 C 132.503906 20.15625 131.976562 21.480469 131.128906 22.589844 C 130.917969 22.867188 130.691406 23.128906 130.445312 23.378906 C 130.195312 23.617188 129.929688 23.84375 129.648438 24.050781 C 128.527344 24.894531 127.195312 25.414062 125.796875 25.546875 C 125.449219 25.578125 125.097656 25.585938 124.75 25.570312 C 124.398438 25.558594 124.050781 25.523438 123.703125 25.460938 C 122.3125 25.203125 121.019531 24.566406 119.972656 23.617188 L 120.0625 23.644531 L 116.289062 24.222656 L 116.015625 24.265625 L 116.15625 24.023438 L 118.035156 20.753906 L 118.035156 20.882812 C 117.59375 19.800781 117.402344 18.632812 117.484375 17.46875 C 117.566406 16.300781 117.910156 15.171875 118.5 14.160156 C 119.085938 13.152344 119.894531 12.292969 120.859375 11.644531 C 122.0625 10.84375 123.46875 10.402344 124.914062 10.371094 C 126.359375 10.339844 127.78125 10.71875 129.015625 11.464844 C 130.253906 12.210938 131.253906 13.292969 131.898438 14.585938 C 132.542969 15.878906 132.808594 17.328125 132.660156 18.765625 Z M 132.652344 18.765625 C 132.773438 17.628906 132.628906 16.480469 132.234375 15.40625 C 131.84375 14.335938 131.207031 13.367188 130.382812 12.578125 C 129.554688 11.789062 128.558594 11.203125 127.46875 10.859375 C 126.378906 10.515625 125.226562 10.429688 124.09375 10.601562 C 122.976562 10.761719 121.910156 11.179688 120.980469 11.816406 C 120.058594 12.46875 119.289062 13.308594 118.722656 14.28125 C 118.164062 15.261719 117.835938 16.351562 117.765625 17.472656 C 117.695312 18.597656 117.875 19.722656 118.296875 20.765625 L 118.324219 20.832031 L 118.289062 20.894531 L 116.390625 24.152344 L 116.253906 23.953125 L 120.03125 23.421875 L 120.082031 23.421875 L 120.121094 23.457031 C 121.128906 24.402344 122.382812 25.046875 123.738281 25.320312 C 124.078125 25.386719 124.421875 25.429688 124.761719 25.445312 C 125.105469 25.46875 125.449219 25.46875 125.792969 25.445312 C 126.484375 25.390625 127.164062 25.242188 127.8125 25 C 128.464844 24.761719 129.078125 24.429688 129.628906 24.011719 C 130.195312 23.609375 130.695312 23.121094 131.113281 22.566406 C 131.964844 21.464844 132.5 20.148438 132.652344 18.765625 Z M 132.652344 18.765625 " fill-opacity="1" fill-rule="nonzero"/><path fill="rgb(100%, 78.039551%, 15.289307%)" d="M 128.644531 16.753906 C 128.378906 19.039062 126.914062 19.464844 126.667969 20.078125 C 126.535156 20.464844 126.425781 20.859375 126.339844 21.261719 L 123.949219 21.261719 C 123.867188 20.867188 123.765625 20.472656 123.640625 20.089844 C 123.394531 19.480469 121.921875 19.0625 121.648438 16.777344 C 121.46875 15.273438 122.59375 12.898438 125.125 12.890625 C 127.65625 12.882812 128.796875 15.261719 128.644531 16.753906 Z M 128.644531 16.753906 " fill-opacity="1" fill-rule="nonzero"/><path fill="rgb(14.898682%, 19.60907%, 21.958923%)" d="M 126.570312 21.40625 L 123.617188 21.40625 L 123.617188 21.980469 L 126.570312 21.980469 Z M 126.570312 21.40625 " fill-opacity="1" fill-rule="nonzero"/><path fill="rgb(14.898682%, 19.60907%, 21.958923%)" d="M 126.632812 21.820312 L 123.679688 21.828125 L 123.683594 22.402344 L 126.632812 22.394531 Z M 126.632812 21.820312 " fill-opacity="1" fill-rule="nonzero"/><path fill="rgb(14.898682%, 19.60907%, 21.958923%)" d="M 126.570312 22.746094 L 123.617188 22.746094 L 123.617188 23.320312 L 126.570312 23.320312 Z M 126.570312 22.746094 " fill-opacity="1" fill-rule="nonzero"/><path fill="rgb(100%, 100%, 100%)" d="M 127.542969 16.992188 C 127.542969 16.992188 127.339844 17.773438 127.214844 18.203125 C 127.082031 18.632812 126.824219 19.007812 126.46875 19.285156 C 126.117188 19.558594 125.6875 19.714844 125.242188 19.738281 C 125.242188 19.738281 125.53125 19.097656 125.640625 18.886719 C 125.746094 18.675781 126.167969 17.996094 126.167969 17.996094 C 125.65625 18.425781 125.289062 19 125.117188 19.644531 C 124.90625 18.097656 125.878906 16.65625 127.554688 16.984375 Z M 127.542969 16.992188 " fill-opacity="1" fill-rule="nonzero"/><path fill="rgb(100%, 100%, 100%)" d="M 123.027344 16.804688 C 123.804688 17.082031 124.671875 17.390625 125.109375 18.121094 C 125.074219 18.230469 125.042969 18.339844 125.019531 18.453125 C 124.976562 18.652344 124.953125 18.890625 124.929688 19.054688 C 124.609375 18.804688 124.300781 18.539062 124.007812 18.253906 C 124.21875 18.65625 124.53125 18.996094 124.914062 19.242188 C 124.910156 19.398438 124.914062 19.554688 124.929688 19.707031 C 123.503906 19.707031 122.675781 18.0625 123.019531 16.78125 Z M 123.027344 16.804688 " fill-opacity="1" fill-rule="nonzero"/></svg>